<svg width="556" height="600" viewBox="0 0 556 600" fill="none" xmlns="http://www.w3.org/2000/svg">
<g clip-path="url(#clip0_773_574)">
<path d="M-3.33323e-06 268C7.83463 252.993 49.6614 233.023 79.4836 229.478C111.707 225.578 130.282 228.887 168.192 245.548C167.686 243.185 167.055 241.294 166.802 239.522C166.423 237.513 166.044 235.386 166.17 233.377C166.17 232.786 167.307 231.723 168.065 231.605C168.824 231.487 170.087 232.314 170.34 232.905C172.615 238.577 174.636 244.249 176.785 250.039C177.416 251.929 176.658 253.347 174.51 253.938C166.296 255.829 158.083 257.838 149.743 259.61C147.847 259.965 145.572 259.492 143.045 259.492C145.067 254.411 149.616 255.002 152.902 253.702C156.313 252.284 159.978 251.457 164.401 250.039C153.913 243.421 143.298 239.286 132.051 236.686C90.8564 226.996 52.9469 235.032 17.9438 256.538C13.3947 259.374 9.22466 262.682 4.80189 265.637C3.41187 266.227 2.1482 266.818 -3.33323e-06 268Z" fill="#0060AA"/>
</g>
<g clip-path="url(#clip1_773_574)">
<path d="M465.993 336.723C469.451 338.754 472.09 340.323 474.639 341.8C475.549 342.354 476.459 342.816 477.278 343.462C478.461 344.293 480.099 345.216 479.189 346.97C478.279 348.631 476.55 347.893 475.276 347.431C473.911 347.062 472.545 346.324 471.271 345.677C465.356 342.816 459.44 339.862 453.616 336.908C452.069 336.077 450.43 335.339 449.065 334.231C446.153 332.016 446.335 329.8 449.52 328.139C453.798 325.923 458.166 323.892 462.535 321.862C464.355 320.939 466.266 320.015 468.177 319.369C469.269 319 470.543 319.092 471.726 319C472.09 321.585 470.634 322.139 469.36 322.785C466.175 324.539 462.899 326.2 459.713 327.954C458.621 328.6 457.438 329.246 456.346 330.723C457.984 330.908 459.531 331.185 461.169 331.277C473.456 331.923 485.651 332.569 497.937 333.216C515.774 334.139 533.521 335.062 551.359 336.077C552.815 336.17 554.271 336.723 556 337.185C554.362 339.677 552.451 339.123 550.904 339.031C542.167 338.847 533.339 338.477 524.602 338.2C505.763 337.554 486.925 336.908 468.086 336.262C467.631 336.354 467.358 336.446 465.993 336.723Z" fill="#E61F1C"/>
</g>
<g clip-path="url(#clip2_773_574)">
<path d="M190.856 576.172C189.08 578.847 187.43 581.14 185.907 583.432C180.45 591.202 173.343 596.552 164.079 599.099C157.353 600.882 151.008 600.118 145.551 595.915C140.094 591.711 134.891 586.999 129.688 582.541C127.023 580.248 124.612 577.828 121.947 575.663C117.124 571.969 113.698 571.969 108.495 575.153C102.276 578.974 98.3421 585.216 96.8192 593.877C92.8851 593.24 92.6313 590.183 93.2658 587.508C94.0273 584.197 95.1694 580.758 96.9461 577.956C98.9766 574.771 101.642 571.714 104.56 569.422C111.921 563.563 118.901 563.435 126.388 569.04C130.83 572.351 134.637 576.3 138.825 579.866C142.632 583.178 146.566 586.489 150.627 589.674C153.673 592.094 157.226 592.603 161.034 591.966C166.871 590.947 171.694 588.272 175.881 583.942C176.77 583.05 177.531 582.159 178.293 581.14C181.592 576.809 184.892 572.479 188.445 567.766C180.323 569.804 172.836 571.714 165.221 573.625C165.094 573.625 164.714 572.988 164.333 572.479C164.841 571.969 165.221 571.078 165.729 570.823C172.836 567.384 179.942 563.69 187.303 560.888C193.014 558.723 196.44 560.506 197.963 566.365C199.359 571.46 199.74 576.809 199.994 582.031C200.12 583.305 198.344 585.343 197.075 585.852C196.313 586.235 194.029 584.706 193.394 583.56C192.125 581.522 191.745 579.102 190.856 576.172Z" fill="#009A45"/>
</g>
<path d="M257.557 228.023L257.544 228.023L257.531 228.024L245.54 228.279H234.315H234.181L234.051 228.314L231.242 229.08L231.086 229.123L230.951 229.213L228.653 230.745L228.538 230.822L228.448 230.926L226.916 232.714L226.836 232.807L226.781 232.917L224.738 237.003L224.687 237.106L224.66 237.217L223.128 243.601L223.125 243.611L223.123 243.621L220.059 257.666L220.059 257.666L220.057 257.673L218.014 267.377L218.014 267.378L215.717 278.351L215.716 278.359L214.441 284.224L214.437 284.243L214.433 284.262L212.394 295.735L210.356 305.16L210.355 305.165L208.313 314.353L208.313 314.353L208.31 314.366L207.036 320.48L205.763 325.829L205.758 325.847L205.755 325.865L202.437 342.453L202.435 342.463L199.373 357.009L199.373 357.01L197.074 367.991L197.074 367.993L195.542 375.398L195.531 375.45L195.526 375.501L195.271 378.055L195.162 379.14L196.252 379.155L215.149 379.41H215.162L350.504 379.41L350.51 379.41L393.666 379.155L394.66 379.149V378.155V377.389V377.276L394.635 377.167L393.362 371.567L393.358 371.549L392.089 365.458L392.086 365.438L389.792 353.202L389.791 353.2L388.515 346.308L388.513 346.301L388.512 346.294L387.493 341.2L387.491 341.186L386.217 334.306L386.215 334.299L386.214 334.292L383.66 321.524L383.657 321.509L383.654 321.495L382.892 318.194L381.874 312.85L381.873 312.841L380.596 306.457L380.594 306.449L379.321 300.337L378.302 294.48L378.299 294.461L378.295 294.442L376.766 287.307L375.237 278.895L375.235 278.885L375.233 278.875L372.427 265.1L372.424 265.085L370.894 256.929L370.893 256.921L370.891 256.914L367.827 241.848L367.819 241.806L367.807 241.765L366.53 237.424L366.505 237.338L366.465 237.259L364.933 234.194L364.875 234.079L364.791 233.983L363.003 231.94L362.916 231.84L362.805 231.766L360.507 230.234L360.42 230.177L360.324 230.138L357.77 229.116L357.659 229.072L357.54 229.055L353.965 228.544L353.895 228.534H353.824H351.174L350.918 228.279H350.504H311.181H311.178L257.557 228.023Z" stroke="black" stroke-width="2"/>
<path d="M205.966 472.148H205.146L204.986 472.952L204.73 474.229L204.711 474.326V474.425V542.862V543.276L205.004 543.569L205.259 543.825L205.552 544.118H205.966H286.15H287.137L287.15 543.131L287.405 523.979H287.405V523.965L287.405 503.792L287.405 503.78L287.15 481.819L287.147 481.542L287.002 481.307L285.031 478.104L283.536 472.874L283.329 472.148H282.575H205.966Z" stroke="black" stroke-width="2"/>
<path d="M308.117 472.148H307.703L307.41 472.441L307.155 472.697L306.946 472.906L306.884 473.194L306.14 476.668L305.195 478.793L303.71 481.021L303.623 481.151L303.58 481.301L303.07 483.088L303.031 483.223V483.363V542.862V543.276L303.324 543.569L303.58 543.825L303.872 544.118H304.287H384.215H384.629L384.922 543.825L385.177 543.569L385.47 543.276V542.862V473.404V472.99L385.177 472.697L384.922 472.441L384.629 472.148H384.215H308.117Z" stroke="black" stroke-width="2"/>
<path d="M206.222 399.633H205.807L205.515 399.926L205.259 400.181L204.982 400.458L204.967 400.85L204.712 407.489L204.711 407.508V407.528V469.325V469.424L204.73 469.521L204.986 470.798L205.146 471.602H205.966H282.575H282.989L283.282 471.309L283.537 471.054L283.83 470.761V470.347L283.83 436.639L283.83 436.631L283.575 403.689L283.574 403.648L283.571 403.607L283.315 400.798L283.283 400.437L283.027 400.181L282.771 399.926L282.478 399.633H282.064H206.222Z" stroke="black" stroke-width="2"/>
<path d="M308.37 399.633H308.134L307.923 399.738L307.412 399.994L306.859 400.27V400.888V470.347V470.761L307.152 471.054L307.408 471.309L307.701 471.602H308.115H383.957H384.193L384.404 471.496L384.915 471.241L385.468 470.965V470.347V400.888V400.474L385.175 400.181L384.92 399.926L384.627 399.633H384.213H308.37Z" stroke="black" stroke-width="2"/>
<path d="M215.159 379.203H215.145L215.132 379.204L205.939 379.459L205.34 379.476L205.072 380.011L204.817 380.522L204.711 380.733V380.969V397.568V397.982L205.004 398.275L205.259 398.53L205.552 398.823H205.966H384.719H385.134L385.427 398.53L385.682 398.275L385.975 397.982V397.568V380.969V380.733L385.869 380.522L385.614 380.011L385.34 379.463L384.727 379.459L349.998 379.203V379.203H349.99H215.159Z" stroke="black" stroke-width="2"/>
<path d="M304.287 544.93H303.872L303.58 545.223L303.324 545.478L303.031 545.771V546.185V582.191V582.605L303.324 582.898L303.58 583.153L303.872 583.446H304.287H384.47H385.47V582.446V545.93V544.93H384.47H304.287Z" stroke="black" stroke-width="2"/>
<path d="M205.966 544.93H205.552L205.259 545.223L205.004 545.478L204.711 545.771V546.185V582.191V582.605L205.004 582.898L205.259 583.153L205.552 583.446H205.966H286.15H287.15V582.446V545.93V544.93H286.15H205.966Z" stroke="black" stroke-width="2"/>
<path d="M285.13 399.633H284.716L284.423 399.926L284.168 400.181L283.875 400.474V400.888L283.875 423.615L283.875 423.621L284.13 467.799L284.13 467.813L284.131 467.827L284.386 475.233L284.39 475.338L284.416 475.441L284.671 476.462L284.693 476.551L284.731 476.634L286.008 479.443L286.07 479.58L286.17 479.693L288.213 481.991L288.315 482.106L288.446 482.185L291 483.717L291.128 483.793L291.272 483.829L294.336 484.595L294.497 484.636L294.662 484.622L297.726 484.367L297.899 484.352L298.057 484.28L300.866 483.004L301.003 482.941L301.116 482.841L303.415 480.798L303.49 480.731L303.55 480.65L305.082 478.607L305.172 478.489L305.222 478.349L306.244 475.54L306.299 475.388L306.304 475.227L306.559 466.289L306.559 466.275V466.261L306.559 456.046L306.559 456.042L306.304 400.628L306.299 399.633H305.304H285.13Z" stroke="black" stroke-width="2"/>
<path d="M211.33 237.984H211.284L211.239 237.988L208.43 238.244L208.342 238.252L208.258 238.275L205.449 239.041L205.422 239.048L205.395 239.057L201.565 240.334L201.471 240.365L201.385 240.414L199.598 241.436L199.56 241.457L199.525 241.482L196.205 243.78L196.162 243.81L196.123 243.843L194.336 245.375L193.987 245.675V245.72L193.769 245.938L192.747 246.96L192.633 247.074L192.56 247.219L192.326 247.688H191.898L191.601 248.133L191.164 248.789L189.221 250.489L189.103 250.593L189.022 250.727L188.256 252.004L188.214 252.073L188.185 252.147L187.925 252.795H187.557L187.26 253.241L186.76 253.99L184.729 256.782L184.638 256.907L184.589 257.054L184.307 257.903H183.951L183.659 258.388L182.893 259.665L182.885 259.679L182.876 259.694L181.604 261.984L178.799 266.828L178.793 266.839L178.787 266.851L177.255 269.66L177.251 269.666L177.248 269.673L174.698 274.518L173.169 277.32L173.047 277.544V277.799V279.587V280.419L173.865 280.57L180.76 281.847L180.77 281.849L180.78 281.851L208.87 286.447L208.892 286.451L208.915 286.453L213.256 286.964L213.737 287.021L214.08 286.678L214.59 286.167L214.778 285.98L214.848 285.723L216.38 280.105L216.388 280.076L216.394 280.046L220.223 261.668L220.225 261.66L222.266 252.219L222.268 252.209L222.27 252.199L224.058 243.006L224.076 242.911V242.815V240.772V240.358L223.783 240.065L223.528 239.809L223.355 239.637L223.122 239.563L218.27 238.031L218.123 237.984H217.969H211.33Z" stroke="black" stroke-width="2"/>
<path d="M381.313 237.998L381.201 237.979L381.088 237.986L372.661 238.497L372.586 238.501L372.512 238.517L368.937 239.283L368.813 239.31L368.699 239.367L367.678 239.877L367.125 240.154V240.772V242.559V242.656L367.143 242.75L368.931 251.943L368.931 251.943L368.934 251.956L371.486 264.21L371.996 266.76L371.996 266.76L371.998 266.769L373.02 271.621L373.032 271.677L373.05 271.732L373.529 273.17L373.772 275.114L373.784 275.213L373.816 275.307L374.55 277.511L375.049 281.498L375.053 281.529L375.058 281.559L375.824 285.644L375.881 285.949L376.1 286.167L376.866 286.933L377.23 287.297L377.738 287.213L391.522 284.915L391.527 284.914L413.738 281.34L413.78 281.333L413.822 281.323L416.886 280.557L417.644 280.368V279.587V278.055V277.819L417.538 277.607L417.298 277.128L416.035 274.095L416.007 274.028L415.969 273.965L415.206 272.694L413.453 269.688L412.711 267.957L412.451 267.351H412.155L412.129 267.31L410.893 265.333L410.157 263.616L409.898 263.01H409.727V262.957L409.575 262.714L408.299 260.671L408.005 260.201H407.787L407.671 259.504L407.532 258.669H407.048L407.018 258.621L405.23 255.812L404.935 255.349H404.596L404.314 254.501L404.155 254.026L403.681 253.868L403.389 253.771L403.292 253.479L403.25 253.352L403.176 253.241L401.643 250.942L401.346 250.497H401.226L401.008 250.279L400.242 249.513L400.127 249.398L399.982 249.326L399.513 249.092V248.785L399.22 248.492L398.454 247.726L398.339 247.611L398.194 247.538L397.726 247.304V246.997L397.433 246.704L395.645 244.917L395.603 244.874L395.556 244.837L391.981 242.028L391.91 241.973L391.831 241.931L387.49 239.633L387.401 239.586L387.304 239.557L382.963 238.28L382.905 238.263L382.845 238.253L381.313 237.998Z" stroke="black" stroke-width="2"/>
<path d="M373.742 282.141L374.253 282.907L376.296 292.1L377.062 295.419L377.828 299.505L378.594 302.825L379.105 306.655L379.616 308.954L380.637 313.295L381.148 316.104L381.914 319.934L382.935 323.765L383.446 325.297L383.701 327.34L384.212 327.85L384.467 326.318H384.723L389.575 350.578L392.384 364.112V365.644L393.15 364.878L395.193 362.069L397.491 359.515L399.278 357.728L403.364 354.919L407.195 353.131L412.302 351.854L419.452 351.088H425.581L430.177 351.599L434.263 352.876L436.816 354.408L437.583 354.663L437.327 353.387V351.088L438.093 351.344L438.349 350.833V351.599L439.115 351.854L440.647 358.494V360.281L438.859 362.324L436.561 364.367L434.518 365.899L434.774 370.496L435.029 372.283L439.115 375.348L441.668 377.646L445.243 381.221L447.797 384.541L449.84 387.86L451.627 391.435L452.904 395.266L453.67 399.607V404.459L452.904 409.055L451.627 413.141L449.329 417.993L447.031 421.057L444.222 424.377L443.201 425.398H442.69L442.434 424.632L441.924 419.525L440.647 412.12L439.115 407.268L437.583 402.927L434.774 397.564L432.731 395.01L430.688 393.223L427.623 391.691L424.815 390.925H420.729L417.409 391.946L415.111 393.478L413.323 395.266L411.28 398.586L410.004 401.905L409.748 403.693V408.8L410.514 412.886L411.28 416.461L412.046 422.334L412.302 426.42V430.25L410.77 429.995L405.662 427.186L402.598 424.888L400.044 422.589L397.491 420.036L394.682 415.95L392.639 411.864L391.362 407.779L390.596 403.437V398.841L391.362 393.989L392.639 390.159L394.682 386.073L396.725 383.008L399.278 380.199L399.534 379.689H400.044L400.555 378.667L401.066 377.901L400.555 373.815L400.3 372.794L393.66 372.028L394.426 375.603L394.171 377.901L393.15 378.412H384.723V378.157H392.639L391.617 374.326L389.83 365.644L388.298 357.472L387.276 351.854L385.489 342.151L384.212 336.022L382.68 328.106L381.148 320.445L379.871 314.316L378.594 307.932L377.317 301.293L376.296 296.186L374.764 288.269L373.742 283.417V282.141ZM419.963 357.728L414.855 358.238L410.259 359.515L406.173 361.303L401.321 364.367L401.066 364.622V366.921L402.598 375.348L403.109 377.901L403.364 378.412L402.087 379.944L399.023 383.008L396.725 386.328L394.426 390.669L392.894 395.777L392.384 398.841V403.948L393.405 408.8L394.937 412.63L396.725 415.95L399.278 419.27L401.577 421.823L404.896 424.632L409.493 427.441L410.514 427.952V424.632L409.748 418.759L408.982 415.695L405.662 410.843L404.13 407.523L403.109 403.182V398.075L404.386 393.989L406.173 390.414L407.961 388.116L410.77 385.307L414.345 383.008L417.664 381.732L420.473 381.221H424.559L428.9 382.242L432.475 384.03L434.774 385.817L436.816 387.605L439.115 390.669L441.413 395.01L442.179 398.33V403.948L441.668 406.502V409.055L442.945 414.673L443.967 421.568L444.733 421.313L447.542 417.227L449.585 413.396L451.372 408.034L451.883 404.97V399.352L450.606 393.989L449.329 390.925L447.286 387.094L445.499 384.541L443.201 381.732L440.647 378.923L437.838 376.624L434.263 373.815L433.241 373.56L432.731 367.942L431.965 360.537L431.199 359.26L427.113 358.238L423.538 357.728H419.963Z" fill="#161414"/>
<path d="M174.049 276.781L174.304 277.292L174.049 279.846L170.729 286.23L168.686 289.805L164.6 297.976L162.302 308.191L157.45 330.407L152.854 351.347L152.088 354.411L151.832 354.922L152.854 354.411L155.407 352.879L158.216 351.858L160.77 351.347L163.324 351.091H169.197L177.113 351.858L181.71 352.879L185.796 354.667L188.349 356.199L191.924 359.008L194.222 361.561L196.01 364.115L196.265 365.647H195.755L196.265 368.967L196.776 370.754L196.521 371.265L195.755 371.52L195.244 372.797L194.989 372.031L189.371 372.797L188.86 376.117V378.415L191.669 381.224L194.733 385.565L196.776 389.396L198.308 393.737L199.074 397.823V403.951L198.053 409.314L196.01 414.421L193.967 417.741L191.924 420.294L189.626 422.848L186.306 425.657L182.22 428.211L177.879 430.509H177.369L177.624 423.87L178.645 415.443L179.922 409.569V403.185L179.156 400.121L177.113 396.035L175.07 393.737L172.261 391.949L170.474 391.183L169.197 390.928H164.856L160.77 392.205L157.961 393.992L155.918 396.29L153.875 399.61L151.832 403.951L149.279 411.612L148.257 416.464L147.236 425.657L145.959 424.891L144.172 422.848L142.129 420.294L139.83 416.719L138.043 412.889L136.766 408.548L136 403.185L136.255 398.589L137.277 393.737L138.809 389.906L140.597 386.587L143.916 381.99L147.491 378.16L150.556 375.351L154.641 372.286L155.152 368.456V365.902L151.832 363.093L149.79 361.306L149.023 360.284L149.279 357.986L151.577 347.772L155.663 329.13L162.302 298.742L163.068 296.189L166.133 290.571L169.197 284.697L172.261 279.08L173.283 277.292L174.049 276.781ZM167.154 357.731L161.536 358.497L158.216 359.518L157.706 361.051L156.429 373.308L152.343 376.372L149.534 378.671L146.725 381.48L144.427 384.288L141.873 388.119L139.83 392.205L138.554 396.035L138.043 398.333L137.788 400.632V404.207L138.554 409.059L140.086 413.4L142.129 417.23L145.193 421.571L145.704 420.805L147.236 412.123L148.002 409.059V406.25L147.491 402.675V398.844L148.513 394.758L150.556 390.673L152.599 388.119L155.407 385.31L158.983 383.012L162.302 381.735L165.111 381.224H169.197L173.538 382.246L177.113 384.033L180.944 387.097L183.497 390.417L185.54 394.503L186.306 396.801L186.817 399.61L186.562 403.696L185.54 407.782L183.497 411.868L180.944 415.443L180.178 417.741L179.411 423.103L179.156 427.955L181.965 426.423L185.029 424.38L188.349 421.571L190.137 419.784L192.946 415.953L195.244 411.612L196.776 407.016L197.542 402.164L197.287 397.823L196.265 393.226L194.989 389.906L192.69 385.565L189.881 381.99L186.817 378.926H186.306L187.838 371.52L188.86 365.902L188.604 364.626L186.306 362.838L181.454 360.284L176.092 358.497L173.283 357.986L170.218 357.731H167.154Z" fill="#171414"/>
<path d="M288.193 73H300.195L311.942 74.0214L319.603 75.0429L327.008 76.5751L334.669 79.1287L341.053 82.193L345.905 85.2574L350.757 88.8324L354.587 92.4075L357.907 95.7272L361.227 100.068L364.291 104.665L367.1 110.027L368.377 113.858L369.654 120.242L370.675 130.456L371.441 142.458V154.716L370.675 159.823L369.398 164.93L367.866 169.016L365.823 173.102L363.78 176.166L361.737 177.954L360.971 178.209H358.162V184.338L357.907 190.211H357.652L357.396 185.104L356.885 183.827L356.63 197.616H356.375L356.119 179.741L355.864 176.166L353.566 170.803L352.289 165.952L351.523 161.355L351.267 155.993L351.778 148.587V145.012L351.012 141.948L349.735 140.671L347.948 139.905L346.16 139.649H337.223L331.86 140.415L326.242 141.948L320.369 143.735L313.474 145.012L307.345 145.778L304.026 146.033H291.768L283.086 145.523L274.404 144.757L264.189 143.224L255.762 141.437H251.676L249.123 142.458L246.314 144.757L244.526 147.31L242.994 150.63L241.717 155.482L239.674 166.207L237.887 173.102L235.844 178.975L234.823 181.529L234.567 199.915H234.312L234.057 196.85L233.801 187.913L233.035 187.147V198.638H232.78V183.316L230.992 183.572L228.949 182.55L227.162 180.507L225.119 176.932L222.565 170.803L220.267 163.143L219.246 158.801L218.479 153.95L217.969 147.566V140.671L218.735 133.01L220.012 125.86L221.544 119.731L224.353 111.56L227.417 104.665L230.481 99.3022L232.524 96.2379L234.567 93.4289L237.632 89.8539L240.951 86.7895L245.292 83.7252L248.868 81.6823L255.252 79.1287L262.146 77.0858L269.807 75.2983L277.213 74.0214L284.618 73.2554L288.193 73ZM289.47 74.2768L280.532 75.0429L275.17 75.809L268.786 77.0858L259.593 79.384L252.698 81.6823L249.634 82.9591L245.548 85.002L244.016 86.0234L240.696 88.5771L238.142 91.1307L236.099 93.9397L234.312 96.4933L231.503 100.834L229.205 104.665L225.885 111.815L223.842 116.922L221.544 124.838L220.267 130.712L219.501 135.564L219.246 138.628V150.885L219.501 154.46L220.267 159.057L223.331 169.271L225.374 174.379L227.417 178.72L229.46 181.273L230.737 182.295H232.269L233.29 181.273L235.333 176.166L236.61 171.825L238.142 166.207L239.674 158.546L241.207 151.396L242.483 147.566L244.271 144.757L246.569 142.203L249.123 140.671L252.443 139.649L256.273 139.905L264.445 141.437L270.063 142.458L279 143.48L289.981 144.246H305.813L312.197 143.48L319.347 142.203L327.008 140.16L333.392 138.628L338.244 138.117H344.373L349.225 138.628L351.267 139.649L352.544 141.692L353.055 144.246V150.119L352.8 153.184L352.544 153.95V160.589L354.076 167.228L355.098 170.037L357.141 174.889H357.652L358.162 176.166L359.439 177.188H360.461L361.737 175.911L363.525 173.612L365.312 170.803L367.1 166.973L368.632 162.121L369.654 157.525L370.164 153.439V143.224L369.398 131.733L368.887 125.86L367.866 118.71L366.845 113.602L365.312 109.517L363.78 106.708L361.993 103.899L359.439 100.324L357.396 97.7701L354.332 94.4504L351.778 91.8968H351.267L351.012 91.1307L349.735 89.8539L347.437 87.811L343.607 85.2574L339.521 82.9591L334.414 80.6608L328.285 78.618L322.922 77.3411L317.304 76.3197L304.026 74.7875L297.386 74.2768H289.47Z" fill="#141112"/>
<path d="M259.341 217.812H258.927L258.634 218.105L258.379 218.361L258.086 218.654V219.068V227.239V227.654L258.379 227.947L258.634 228.202L258.927 228.495H259.341H330.587H330.71L330.83 228.465L331.851 228.21L332.609 228.02V227.239V219.068V218.137L331.68 218.07L328.105 217.815L328.069 217.812H328.034H259.341Z" stroke="black" stroke-width="2"/>
<path d="M312.197 180.508L314.495 180.763L316.538 181.785L317.559 182.806L318.581 185.36V186.636H317.049L316.027 186.126L315.261 188.424L314.24 193.276L312.452 196.851L310.409 199.149L307.345 200.937L303.515 202.214L299.173 202.98H291.002L285.639 201.958L281.809 200.426L279.511 198.638L277.468 196.34L275.68 192.254L274.914 189.445V187.913L275.68 186.636L276.191 186.381H279L284.362 187.403L288.704 187.913H296.62L301.472 187.147L305.813 185.87L309.388 184.338L310.92 183.061L311.431 182.295L311.941 180.763L312.197 180.508Z" fill="#221E1E"/>
<path d="M333.906 227.75H356.889L360.208 229.027L362.762 230.559L364.805 232.347L366.593 234.9L368.125 237.964L368.38 239.497L371.7 238.475L375.019 237.964H380.127L383.702 238.475L387.788 239.752L391.363 241.54L394.172 243.582L396.725 245.881L400.045 249.2L402.343 252.009L405.152 255.84L407.961 260.436L411.025 265.544L413.834 270.395L417.154 276.524L421.495 284.696L424.56 290.314L427.879 296.698L428.901 300.528L434.263 325.043L439.881 350.579V351.6L438.605 351.345L438.094 352.111L435.54 340.62L433.242 329.895L430.178 316.105L427.369 302.826L425.836 296.953L422.006 289.803L418.942 283.93L416.643 279.844L416.133 277.546L414.856 274.481L414.09 273.204L412.813 270.906L412.047 269.885L411.792 268.352H411.281L409.749 265.799L409.238 264.011H408.727L407.45 261.713V261.202H406.94L406.684 259.67H406.174L404.641 257.117L404.386 256.35H403.875L403.109 254.818L401.832 253.542L400.811 252.009V251.499H400.3L399.023 249.966L394.427 245.37L390.086 242.306L386.255 240.518L382.17 239.241L372.721 239.752L368.38 240.773V242.561L371.7 259.159L372.721 264.011L373.232 266.565L374.509 272.694L374.764 272.949L375.53 277.035L375.786 277.29L376.296 281.376L377.062 285.462V285.972H377.573L379.616 295.676L385.489 325.298V327.852L384.979 328.362L384.212 326.575V325.043L383.446 323.255L382.68 319.936L381.404 313.807L379.616 304.869L378.85 300.528L378.084 297.464L377.573 294.399L375.786 286.483L374.764 282.142L373.998 279.078L371.189 265.288L368.38 250.733L366.082 240.007L364.55 235.922L363.017 233.623L362.251 233.113V232.602L360.975 232.091L358.932 230.814L357.4 230.304V229.793L351.526 229.282L349.483 229.027H340.29L338.503 228.771H336.205L334.417 228.516L333.906 227.75Z" fill="#181616"/>
<path d="M288.198 73H300.2L311.947 74.0214L319.608 75.0429L327.013 76.5751L334.674 79.1287L341.058 82.193L345.91 85.2574L350.762 88.8324L354.592 92.4075L357.912 95.7272L361.232 100.068L364.296 104.665L367.105 110.027L368.382 113.858L369.658 120.242L370.68 130.456L371.446 142.458V154.716L370.68 159.823L369.403 164.93L367.871 169.016L365.828 173.102L363.785 176.166L361.742 177.954L360.976 178.209H358.678V177.698L357.912 177.443L358.678 177.188H360.721L362.253 175.911L364.807 172.08L366.849 168.25L368.126 164.675L369.403 159.568L369.914 153.439V143.224L369.148 131.733L368.637 125.86L367.616 118.71L366.594 113.602L365.062 109.517L363.53 106.708L361.742 103.899L359.189 100.324L357.146 97.7701L354.081 94.4504L351.783 92.1521L349.74 90.3646L348.463 88.8324L344.378 86.0234L340.547 83.7252L335.695 81.4269L330.843 79.6394L324.204 77.8519L317.309 76.5751L304.031 75.0429L297.391 74.5322H289.475L280.537 75.2983L275.175 76.0643L268.791 77.3411L259.598 79.6394L252.703 81.9377L249.638 83.2145L245.553 85.2574L244.021 86.2788L240.701 88.8324L238.403 91.1307L236.36 93.9397L234.572 96.4933L231.763 100.834L229.465 104.665L226.145 111.815L224.102 116.922L221.804 124.838L221.293 127.392H220.783L220.272 130.201L219.506 134.031L218.995 138.628L218.74 139.905H218.484V135.053L219.506 128.413L221.038 121.519L224.102 112.326L226.401 106.963L228.443 102.877L230.997 98.5362L234.317 93.6843L237.636 89.8539L240.956 86.7895L245.297 83.7252L248.872 81.6823L255.256 79.1287L262.151 77.0858L269.812 75.2983L277.218 74.0214L284.623 73.2554L288.198 73Z" fill="#131213"/>
<path d="M356.634 183.312L357.4 184.079L357.656 185.1L357.911 190.207V200.166L356.889 204.508L355.613 207.572L353.314 210.892L352.293 212.168L350.25 213.956L346.42 216.51L342.589 218.042L338.248 218.808L334.162 219.063L333.652 219.829H332.63V220.34L331.864 220.085V219.063H259.341L258.064 219.574L257.554 220.595L257.298 222.894H257.043V218.808H251.936L247.339 217.786L242.998 215.743L239.934 213.445L237.891 211.402L235.593 208.083L234.316 205.529L233.294 202.209L233.039 200.932V187.143L233.805 187.398L234.061 187.909L234.316 196.847L234.571 199.911L235.848 204.252L237.891 208.338L240.189 211.147L242.487 213.19L246.573 215.488L249.893 216.51L251.17 216.765L256.788 217.02L339.269 216.765L343.355 215.743L347.441 213.701L349.995 211.658L352.038 209.359L354.08 205.784L355.357 202.72L356.379 197.613L356.634 183.312Z" fill="#151313"/>
<path d="M340.8 116.414H350.248L350.504 116.669V118.457H340.289L334.416 119.223L327.01 120.755L308.624 125.352L299.942 127.139L293.303 128.161L285.897 128.927L281.811 129.182H268.532L257.807 128.416L248.104 126.884L238.911 124.841L236.102 123.82V122.543L237.123 122.287L246.827 124.33L256.53 125.862L264.191 126.629L269.299 126.884H280.024L287.685 126.373L296.367 125.352L303.517 124.075L311.433 122.287L328.542 118.202L333.65 117.18L337.48 116.669L340.8 116.414Z" fill="#151B23"/>
<path d="M311.689 187.398H312.455L312.2 188.931L311.434 190.207H310.923L310.668 190.973L306.837 193.016L305.561 193.527V194.038L308.369 194.549L309.391 195.315V195.825L305.816 197.613L302.496 198.634L298.921 199.4L296.878 199.656H292.792L287.685 198.89L283.599 197.613L281.301 196.081L280.024 194.549L278.492 191.229V189.952L282.067 190.207L289.217 190.973H297.389L301.73 190.463L307.093 189.186L311.689 187.398Z" fill="#F5F7F6"/>
<path d="M324.2 95.7266H327.265L333.904 96.4926L339.522 97.7695L345.651 99.8123L346.161 100.068V101.855L344.885 101.6L340.033 100.068L335.692 99.0463L329.818 98.0248L326.754 97.7695H324.2L319.859 98.2802L313.986 99.557L300.452 103.387L294.068 105.175L282.832 107.729L274.15 109.005L270.83 109.261H261.381L254.487 108.75L246.826 107.473L239.931 105.686L237.633 104.664V103.387L239.931 103.643L246.57 105.175L252.444 106.196L258.062 106.962L261.381 107.218H268.021L275.937 106.452L283.343 105.175L293.557 102.877L301.729 100.578L307.602 99.0463L314.497 97.2587L319.349 96.2373L324.2 95.7266Z" fill="#151B24"/>
<path d="M333.906 227.75H356.889L360.208 229.027L362.762 230.559L364.805 232.347L366.593 234.9L368.125 237.964V239.497L366.848 238.475V237.709H366.337L367.103 240.007L368.38 242.561L371.7 259.159L372.721 264.011L373.232 266.565L374.509 272.694L374.764 272.949L375.53 277.035L375.786 277.29L376.296 281.376L377.062 285.462V285.972H377.573L379.616 295.676L385.489 325.298V327.852L384.979 328.362L384.212 326.575V325.043L383.446 323.255L382.68 319.936L381.404 313.807L379.616 304.869L378.85 300.528L378.084 297.464L377.573 294.399L375.786 286.483L374.764 282.142L373.998 279.078L371.189 265.288L368.38 250.733L366.082 240.007L364.55 235.922L363.017 233.623L362.251 233.113V232.602L360.975 232.091L358.932 230.814L357.4 230.304V229.793L351.526 229.282L349.483 229.027H340.29L338.503 228.771H336.205L334.417 228.516L333.906 227.75Z" fill="#110F11"/>
<path d="M278.748 161.609H280.536L283.089 162.631L284.877 164.418L285.898 166.206L286.154 167.227V169.526L285.132 171.824L283.345 173.867L281.302 174.888L278.748 175.144L276.45 174.377L274.918 173.356L273.386 171.313L272.875 170.036V166.717L274.152 164.163L276.195 162.375L278.748 161.609Z" fill="#201D1D"/>
<path d="M310.16 161.609L312.458 161.865L314.501 162.886L316.289 164.674L317.31 167.227V169.526L316.289 171.824L314.501 173.867L312.458 174.888L309.905 175.144L307.096 174.122L305.308 172.59L304.031 170.036V166.717L305.308 164.163L307.351 162.375L310.16 161.609Z" fill="#211D1E"/>
<path d="M338.248 137.859H344.376L349.228 138.37L351.271 139.392L352.293 140.668L353.059 142.456L353.314 144.243V150.117L353.059 153.181L352.803 153.947V160.587L354.335 167.226L355.357 170.035L357.144 174.121V174.887H357.655L358.677 176.419L360.464 177.185L360.72 176.419L362.252 175.142L365.061 170.801L366.848 166.971L368.38 162.119L369.402 157.522H369.657V159.565L368.38 164.672L367.104 168.247L365.061 172.078L363.018 175.142L361.23 177.185L360.72 177.44H358.166L358.677 177.951L358.166 178.207V184.335L357.911 190.209H357.655L357.4 185.101L356.889 183.824L356.634 197.614H356.378L356.123 179.739L355.868 176.164L353.569 170.801L352.293 165.949L351.527 161.353L351.271 155.99L351.782 148.585V145.009L351.016 141.945L349.739 140.668L347.951 139.902L346.164 139.647H337.226L331.098 140.413L330.331 139.902L329.055 139.647L330.076 139.136L335.183 138.115L338.248 137.859Z" fill="#221E1E"/>
<path d="M223.334 241.031L224.611 241.287L224.355 243.84L221.036 259.162L218.227 272.441L216.439 281.378L215.673 284.443L214.907 286.486L214.396 287.762L213.63 291.593L213.375 294.402L212.864 295.934L212.609 298.743L212.098 299.509L211.587 302.829L211.076 304.106L210.566 306.404L210.055 307.936L209.544 310.745L209.034 311.256L208.778 314.065L208.523 314.575H208.012V316.618L207.757 318.15L207.246 318.406L206.991 321.981L206.735 322.492H206.225V323.768L205.203 324.534L205.714 321.215L210.31 299.254L213.119 286.486L214.141 283.677L215.673 277.548L218.227 265.035L220.525 254.055L222.057 247.16L222.823 242.819L223.334 241.031Z" fill="#121011"/>
<path d="M373.742 282.141L374.253 282.907L376.296 292.1L377.062 295.419L377.828 299.505L378.594 302.825L379.105 306.655L379.616 308.954L380.637 313.295L381.148 316.104L381.914 319.934L382.935 323.765L383.446 325.297L383.701 327.34L384.212 327.85L384.467 326.318H384.723L389.575 350.578L390.341 354.153V355.429L389.83 355.685L390.085 358.238H390.596V361.303L389.319 361.047L388.809 360.281L387.787 354.153L386.51 348.024L385.489 342.151L384.212 336.022L382.68 328.106L381.148 320.445L379.871 314.316L378.594 307.932L377.317 301.293L376.296 296.186L374.764 288.269L373.742 283.417V282.141Z" fill="#1E1C1D"/>
<path d="M327.777 139.648H330.33L331.607 139.904L330.841 140.67L325.478 142.202L320.371 143.734L313.476 145.011L307.348 145.777L304.028 146.032H291.771L283.088 145.522L279.513 145.266V145.011L282.322 144.756L281.301 144.5L279.513 144.245L278.492 143.734L274.406 143.479L273.385 143.99V143.479L272.619 143.734L271.852 142.968L270.32 142.713V142.457L274.917 142.713L279.003 143.223L289.983 143.99H305.816L312.2 143.223L319.35 141.947L327.011 139.904L327.777 139.648Z" fill="#221E1E"/>
<path d="M259.086 226.75H331.098L330.843 228.027L329.566 228.282H310.414L303.774 228.027H273.897L261.64 227.771L261.129 227.261L259.852 227.005V227.516H259.341L259.086 226.75Z" fill="#0C0B0D"/>
<path d="M205.199 393.477H205.455L205.71 399.605H206.221L205.965 407.521L205.71 455.785H205.455L205.199 426.418L204.688 425.907L204.178 424.375H203.922L203.667 469.83H203.412L203.156 398.584L203.667 399.605L203.922 399.861L204.688 397.307L204.944 396.286L204.688 395.775L205.199 393.477Z" fill="#232124"/>
<path d="M220.778 127.391H221.033L220.778 129.689L219.756 135.562L219.501 138.627V150.884L219.756 154.459L220.522 159.055L223.587 169.27L225.63 174.377L227.672 178.718L229.715 181.272L230.737 182.038H232.269L233.035 181.272L235.078 176.165L235.589 174.633H235.844V176.165L235.333 177.697L234.823 178.974L234.567 180.506H234.057V181.017H233.546L233.29 182.038L234.567 181.783V199.913H234.312L234.057 196.849L233.801 187.911L233.035 187.145V198.637H232.78V183.315L230.992 183.57L228.949 182.549L227.162 180.506L225.119 176.931L222.565 170.802L220.267 163.141L219.246 158.8L218.479 153.948L217.969 147.564V140.669L218.224 137.35H218.479L218.735 138.627L219.501 132.498L220.522 128.157L220.778 127.391Z" fill="#1F1C1D"/>
<path d="M281.042 149.609H285.383L287.937 150.12L288.447 150.631V152.163L288.192 152.674L279.254 152.929L273.126 153.951L268.018 155.483L265.975 156.249H264.188L263.422 154.461L264.188 153.695L269.551 151.652L275.935 150.12L281.042 149.609Z" fill="#383534"/>
<path d="M303.772 150.375H308.624L313.476 150.886L318.328 151.907L324.201 153.95L326.244 155.227L325.733 156.759L325.478 157.014L323.18 156.759L317.562 154.972L312.455 153.95L309.39 153.695L301.474 153.439L301.219 151.652L302.24 150.63L303.772 150.375Z" fill="#393534"/>
<path d="M237.633 103.391L239.931 103.646L246.57 105.178L252.444 106.2L258.062 106.966L261.381 107.221H268.021L272.873 106.966L275.171 107.221L276.192 107.987V108.753L270.83 109.264H261.381L254.487 108.753L246.826 107.476L239.931 105.689L237.633 104.667V103.391Z" fill="#151B23"/>
<path d="M276.191 186.383H279L284.362 187.404L288.704 187.915H299.939L299.429 188.426H298.407L297.897 189.447H297.386L296.875 190.469L298.152 190.724L297.386 191.235H289.214L282.064 190.469L280.021 189.958L280.787 189.447L279.766 188.936V188.426L278.744 188.17V187.66L277.978 187.404L277.723 187.66L276.702 188.426H276.191L275.936 189.192L274.914 189.447V187.915L275.68 186.638L276.191 186.383Z" fill="#141112"/>
<path d="M333.906 227.75H356.889L360.208 229.027L362.762 230.559L364.805 232.347L366.593 234.9L368.125 237.964V239.497L366.848 238.475V237.709H366.337L366.593 238.731L366.082 238.986L365.571 236.943L365.06 235.922L362.507 233.368L362.251 232.602L360.975 232.091L358.932 230.814L357.4 230.304V229.793L351.526 229.282L349.483 229.027H340.29L338.503 228.771H336.205L334.417 228.516L333.906 227.75Z" fill="#0F0D0F"/>
<path d="M369.401 157.523H369.656V159.566L368.379 164.674L367.102 168.249L365.06 172.079L363.017 175.143L361.229 177.186L360.718 177.442H358.165L358.676 177.952L358.165 178.208V184.336L357.909 190.21H357.654L357.399 185.102L356.888 183.826L356.633 197.615H356.377L356.122 179.74L355.867 176.165L353.568 170.802L352.547 167.227V164.674L353.313 165.44L353.824 166.972L354.845 169.525V170.036H355.356L357.143 174.122V174.888H357.654L358.676 176.42L360.463 177.186L360.718 176.42L362.251 175.143L365.06 170.802L366.847 166.972L368.379 162.12L369.401 157.523Z" fill="#161313"/>
<path d="M366.336 237.711H366.847L367.357 238.477L368.379 238.988V239.498L371.699 238.477L375.018 237.966H380.125L383.701 238.477L387.786 239.754L391.361 241.541L394.17 243.584L396.724 245.883L400.044 249.202L402.342 252.011L404.385 254.82L404.129 255.586L402.597 253.543L400.299 250.734L394.681 245.116L392.894 243.84L391.617 243.329L389.063 241.797L386.254 240.52L382.168 239.243L372.72 239.754L368.379 240.775L368.123 242.052L367.357 241.031L366.336 238.732V237.711Z" fill="#151315"/>
<path d="M278.751 161.609H280.538L283.092 162.631L284.879 164.418L285.901 166.206L286.156 167.227V169.526L285.135 171.824L283.347 173.867L282.581 174.377L280.794 174.122L281.049 173.101L283.603 171.824L283.858 171.058L284.879 170.802V168.249L283.347 167.993L282.07 168.249L282.837 166.461L282.581 164.674L281.304 163.652L279.517 163.397L277.985 164.674L277.474 167.227L276.963 166.717L276.708 165.44L275.686 164.674L274.665 165.695L273.899 166.972H273.388L273.133 167.738V165.951L274.41 163.908L276.197 162.375L278.751 161.609Z" fill="#141212"/>
<path d="M241.461 149.609H241.716L241.461 152.418L241.205 152.674V155.993L241.461 157.015L239.418 167.485L237.63 173.869L235.843 178.976L234.566 181.785L234.055 182.296L233.289 182.04L233.544 181.019H234.055V180.508H234.566V178.976L235.332 176.678L235.587 176.167L236.098 173.103L237.63 166.974L238.907 161.101L240.695 152.418L241.461 149.609Z" fill="#181414"/>
<path d="M136.508 401.906L136.763 402.672H137.274L137.529 402.162L138.04 404.205L138.806 409.056L140.338 413.398L142.381 417.228L144.935 420.803L145.445 422.08L145.956 422.846L146.978 423.101V425.144L145.956 424.889L144.169 422.846L142.126 420.292L139.828 416.717L138.04 412.887L136.763 408.546L136.508 407.269V401.906Z" fill="#151313"/>
<path d="M256.531 139.906L259.34 140.162L265.469 141.438L270.065 142.205L271.853 142.715L272.874 143.481H273.385L273.64 143.737L274.407 143.226L278.492 143.481L280.791 144.247H282.067L282.833 145.013H276.96L269.044 143.992L262.66 142.971L257.297 141.694V141.438L258.574 141.183L257.297 140.672L256.531 139.906Z" fill="#141212"/>
<path d="M310.155 161.609L312.453 161.865L314.496 162.886L316.283 164.674L317.305 167.227V169.526H316.794V167.227L313.985 167.993L313.219 168.504L313.73 166.717L313.474 164.929L312.197 163.652L310.41 163.397L309.133 164.163L308.367 165.184L308.112 166.717L307.856 167.738L306.324 165.951L304.792 167.227L304.537 169.781H304.281V165.951L305.558 163.908L307.346 162.375L310.155 161.609Z" fill="#141212"/>
<path d="M194.734 245.117L195.245 245.373L193.968 246.905L192.691 247.926L192.947 248.692H192.436L191.925 249.714L191.159 250.48H190.648L190.393 251.246H189.882L189.371 252.523L188.605 253.799H188.095L187.584 254.821L185.286 258.396L185.03 258.907H184.52L184.264 259.928L182.987 261.716L181.711 264.269L178.646 269.377L176.348 274.228L174.305 277.803L174.05 277.037L173.539 277.293L174.05 275.761L177.369 269.632L181.455 262.737L185.03 256.864L188.095 252.523L190.393 249.714L194.479 245.373L194.734 245.117Z" fill="#1D1B1B"/>
<path d="M287.427 144.242H289.47L290.747 144.498L291.258 145.008L291.513 144.498H305.558L305.813 145.264L306.579 145.519L304.026 146.03H291.768L283.086 145.519V145.008H286.15V144.498L287.427 144.242Z" fill="#161212"/>
<path d="M338.248 137.859H344.376L349.228 138.37L351.271 139.392L351.782 140.158L350.76 139.902V139.392L349.228 139.647V140.158L346.164 139.647H337.226L331.098 140.413L330.331 139.902L329.055 139.647L330.076 139.136L335.183 138.115L338.248 137.859Z" fill="#231F1F"/>
<path d="M310.413 163.141L312.201 163.396L313.477 164.417L313.988 165.694L313.733 167.226L312.967 168.503L311.69 169.269H310.158L308.625 168.248L307.859 166.716L308.115 165.184L309.647 163.396L310.413 163.141Z" fill="#F0F2F1"/>
<path d="M391.36 362.836H391.871V364.368L392.126 365.39L392.892 365.645L392.382 365.9L392.892 368.199L393.403 368.965L393.658 369.475V371.518L394.424 371.774H396.467V372.029H394.68L395.446 375.604L395.191 377.902L394.169 378.413H385.742V378.158H393.658L392.637 374.327L390.849 365.645L390.594 363.602L391.36 363.347V362.836Z" fill="#1F1C1D"/>
<path d="M211.079 237.961H215.675L217.974 238.216L218.229 238.727L212.611 238.982L207.504 239.748L203.418 241.025L201.12 242.047L198.566 243.579L196.523 245.111H196.013L195.502 246.133H194.991V246.643L193.204 248.175L192.438 247.92L193.204 247.665L193.459 246.899L194.48 245.877H194.991L195.502 244.6L198.311 242.302L202.397 240.004L206.227 238.727L211.079 237.961Z" fill="#171516"/>
<path d="M272.616 106.961L275.17 107.216L276.191 107.982V108.748L270.829 109.259H261.38L257.294 109.004L257.039 108.493L258.827 107.982H266.487L269.041 107.472L272.105 107.216L272.616 106.961Z" fill="#0E0D0F"/>
<path d="M279.512 163.141L281.299 163.396L282.831 164.673L283.087 166.46L282.321 167.992L281.299 168.759H279.256L277.724 167.482L277.469 166.971L277.724 164.673L279.512 163.141Z" fill="#F0F2F1"/>
<path d="M235.587 174.633H235.843V176.165L235.332 177.697L234.821 178.974L234.566 180.506H234.055V181.017H233.544L233.289 182.038L234.566 181.783V199.914H234.31L234.055 196.849L233.8 187.912L233.034 187.146V198.637H232.778V183.315L232.012 183.06L232.523 182.549H230.48L229.203 181.528L229.458 181.017L230.735 182.038H232.267L233.034 181.272L235.076 176.165L235.587 174.633Z" fill="#2A2626"/>
<path d="M392.383 243.578L393.66 244.089L396.724 246.898L401.065 251.239L401.831 252.26V252.771L402.597 253.027L404.129 255.325L404.64 255.069L407.705 259.921L411.024 265.539L412.812 268.604L412.301 268.859L413.833 271.413L413.578 272.179L412.812 270.902L412.046 269.88L411.79 268.348H411.28L409.747 265.795L409.237 264.007H408.726L407.449 261.709V261.198H406.938L406.683 259.666H406.172L404.64 257.112L404.385 256.346H403.874L403.108 254.814L401.831 253.537L400.81 252.005V251.494H400.299L399.022 249.962L394.426 245.366L392.383 243.833V243.578Z" fill="#1C1A1B"/>
<path d="M352.039 140.156L353.061 141.178L354.082 145.263L354.337 148.583L353.571 155.223L353.827 161.862L354.593 165.437L354.848 166.714L355.614 169.778L355.359 170.544L354.337 167.991L353.316 163.905L352.55 160.33V153.946L352.805 153.18L353.061 150.115V144.242L352.55 141.688L352.039 140.156Z" fill="#373536"/>
<path d="M220.016 160.078L220.526 160.844L221.803 164.93L223.335 170.037L224.357 172.08L225.889 176.421L227.932 179.741L228.443 180.507L229.209 180.762L229.719 181.784L230.485 182.295H232.784L232.528 183.061L231.762 183.571L230.23 183.316L228.187 181.784L225.889 178.464L223.846 174.123L221.803 168.505L220.016 162.121V160.078Z" fill="#151314"/>
<path d="M237.887 91.1328V91.8989L236.1 94.1972L234.057 97.2615L230.992 102.113L229.46 104.667L226.14 111.817L224.098 116.924L222.31 123.053H222.055V121.265L222.565 119.478L223.842 115.137L225.374 111.306L225.63 110.54H226.14L226.396 109.008L228.439 105.178L228.949 103.901L230.226 102.113L231.503 99.5597H232.014L232.525 98.2829L233.801 95.9847L234.567 95.474L235.078 93.6864L236.866 92.1543L237.887 91.1328Z" fill="#1F1C1D"/>
<path d="M356.125 176.164L357.402 176.675V177.186L358.679 177.696L358.168 178.207V184.336L357.913 190.209H357.657L357.402 185.102L356.891 183.825L356.636 197.614H356.38L356.125 176.164Z" fill="#302D2C"/>
<path d="M270.32 142.461L274.917 142.716L279.003 143.227L289.983 143.993L305.305 144.248V144.504L291.515 144.759L290.239 145.015L289.472 144.504H287.43L285.897 145.27H279.513V145.015L282.322 144.759L281.301 144.504L279.513 144.248L278.492 143.738L274.406 143.482L273.385 143.993V143.482L272.619 143.738L271.852 142.972L270.32 142.716V142.461Z" fill="#201D1D"/>
<path d="M261.891 140.672L265.21 140.927L267.509 141.438L272.105 141.949L273.127 142.204L285.384 143.225L293.555 143.736H304.536L309.899 143.481V143.736L305.813 144.247H289.98L279 143.481L270.062 142.459L264.444 141.438L261.891 140.927V140.672Z" fill="#373536"/>
<path d="M220.778 127.391H221.033L220.778 129.689L219.756 135.562L219.501 138.627L219.246 148.841L218.735 148.586L218.479 151.395H218.224L217.969 147.564V140.669L218.224 137.35H218.479L218.735 138.627L219.501 132.498L220.522 128.157L220.778 127.391Z" fill="#222020"/>
<path d="M267.508 142.461H270.317L272.104 142.716L272.87 143.482H273.381L273.636 143.738L274.403 143.227L278.488 143.482L280.787 144.248H282.063L282.83 145.015H276.956L269.04 143.993L267.508 143.482V142.461Z" fill="#121011"/>
<path d="M241.719 148.078L241.974 148.844L240.697 153.696L239.165 161.102L237.888 166.975L236.101 173.87L234.569 178.211L233.036 181.786L232.27 182.297H230.738L228.695 180.509L228.951 179.998L230.738 181.53H232.015L233.292 179.743L235.079 174.891L236.867 168.762L238.654 160.591L239.931 153.441L240.953 149.61L241.719 148.078Z" fill="#373536"/>
<path d="M275.938 191.484L276.959 192.506V193.017H277.47L278.491 195.059L280.279 197.102L282.066 198.379L283.088 198.89L283.854 199.911V200.422H284.364V200.933H282.832L280.279 199.401L278.236 197.358L276.704 194.804L275.938 193.017V191.484Z" fill="#141111"/>
<path d="M233.294 227.75H256.022L255.256 228.516H237.891L233.039 228.261L233.294 227.75Z" fill="#0C0B0D"/>
<path d="M367.359 115.898L367.87 116.154L368.636 120.24L369.147 125.347L369.658 129.177V131.475L370.424 139.902V153.692L370.168 155.735H369.913V143.222L369.147 131.731L368.636 125.858L367.615 118.707L367.359 115.898Z" fill="#1F1C1D"/>
<path d="M368.633 159.82L368.888 160.842L367.611 165.438L366.335 168.758L364.802 171.567L362.249 175.397L360.717 176.674L360.461 177.185L359.184 176.93L357.908 175.653L357.652 174.887H357.142L355.609 171.056L355.865 170.545L357.908 174.376L358.674 175.653V176.163H360.972L361.483 174.887H361.993L362.759 173.354H363.27V172.333H363.781L364.292 170.801L366.335 166.97L368.122 161.863L368.633 159.82Z" fill="#373536"/>
<path d="M180.689 264.266H180.945L180.689 266.053L178.646 269.373L176.348 274.225L174.305 277.8L174.05 277.034L173.539 277.289L174.05 275.757L177.369 269.628L180.434 264.521L180.689 264.266Z" fill="#1E1B1C"/>
<path d="M369.398 157.523H369.653V159.566L368.377 164.674L367.1 168.249L365.057 172.079L363.014 175.143L361.226 177.186L360.716 177.442H358.673L357.907 177.186L357.141 174.888H357.651L358.673 176.42L360.46 177.186L360.716 176.42L362.248 175.143L365.057 170.802L366.844 166.972L368.377 162.12L369.398 157.523Z" fill="#1F1C1D"/>
<path d="M200.35 349.047L200.861 349.302V351.09L200.35 351.345L200.095 354.665L199.584 356.197L199.074 359.261L198.052 360.794H197.797V358.495L199.584 350.068L200.35 349.047Z" fill="#151212"/>
<path d="M386.508 404.203H386.764V420.546H386.508L385.998 416.205L385.742 411.353V405.991L386.508 404.203Z" fill="#1F1C1D"/>
<path d="M389.065 346.492L389.831 346.748L391.364 354.153V355.43L390.342 355.685L389.065 350.833L388.81 350.067L388.555 347.003L389.065 346.492Z" fill="#191C21"/>
<path d="M147.745 396.289L148.256 397.311L149.277 398.077L149.022 402.162L148.511 401.652V403.95L148 406.248H147.745L147.234 402.673V398.843L147.745 396.289Z" fill="#242527"/>
<path d="M343.867 85.7656L345.144 86.2763L348.719 88.83L350.507 90.8729L351.273 91.3836V91.8943L352.294 92.405L356.38 96.4908L358.678 99.2998L358.934 100.066H358.423L357.657 99.0444V98.5337H357.146L356.125 97.2569L355.358 96.7462V96.2355L354.337 95.7247V95.214H353.826L352.549 93.6818L351.273 92.6604L349.996 91.3836L347.442 88.5746L344.889 86.7871L343.867 85.7656Z" fill="#373536"/>
<path d="M338.243 137.352H345.904L348.458 137.862L350.756 138.628L351.011 139.139L347.436 138.373L344.372 138.118H338.243L333.391 138.628L329.05 139.65H327.773L328.795 139.139L333.136 138.118L338.243 137.352Z" fill="#373536"/>
<path d="M327.776 139.648H330.33L331.607 139.904L330.841 140.67L325.478 142.202L323.18 142.713L323.69 141.691L325.223 140.415L327.776 139.648Z" fill="#151313"/>
<path d="M392.383 243.578L393.66 244.089L396.724 246.898L401.065 251.239L401.831 252.26V252.771L402.597 253.027L404.129 255.325L404.64 255.069L405.151 256.346V256.857L406.428 258.644V259.411H406.938L407.194 260.687L406.683 260.432V259.666H406.172L404.64 257.112L404.385 256.346H403.874L403.108 254.814L401.831 253.537L400.81 252.005V251.494H400.299L399.022 249.962L394.426 245.366L392.383 243.833V243.578Z" fill="#1F1C1D"/>
<path d="M241.461 149.609H241.716L241.461 152.418L241.205 152.674V154.972L240.95 156.76L240.439 157.27L239.929 160.845L239.673 161.356H239.163V164.165L238.652 164.931L238.141 167.485L237.63 169.017H237.375L237.63 166.974L238.907 161.101L240.695 152.418L241.461 149.609Z" fill="#1F1C1D"/>
<path d="M218.484 147.82L219.25 148.842L219.761 154.46L220.272 157.524L220.017 159.312H219.506L218.995 157.013L218.484 153.949V147.82Z" fill="#1F1C1E"/>
<path d="M145.959 417.992L147.491 419.014H147.746L147.236 425.653L146.47 425.142H146.98V423.099L145.704 422.844L144.938 421.823L145.704 419.524L145.959 417.992Z" fill="#282423"/>
<path d="M305.813 185.867H307.09L307.345 186.633L305.558 187.91H303.77L302.238 188.421L300.706 188.676V187.91L300.195 187.399L305.047 186.123L305.813 185.867Z" fill="#191D23"/>
<path d="M207.501 315.086L208.012 315.597L207.757 318.15L207.246 318.406L206.991 321.981L206.735 322.491H206.225V323.768L205.203 324.534L205.714 321.215L206.991 315.341L207.501 315.086Z" fill="#1A1615"/>
<path d="M267.508 142.461H270.317L272.104 142.716L272.87 143.482H273.381L273.636 144.504L270.572 144.248L267.508 143.482V142.461Z" fill="#141212"/>
<path d="M349.737 139.391H350.759L351.014 139.901L352.036 140.157L352.546 141.178V145.009H351.78L351.014 141.944L349.737 140.667L349.227 139.646L349.737 139.391Z" fill="#171313"/>
<path d="M291.008 199.656H298.669L298.413 200.422H297.647V200.933L297.136 201.188H293.561L292.029 200.422V199.912L291.008 199.656Z" fill="#0C0B0D"/>
<path d="M136.255 398.586L137.532 399.352L138.043 398.841L137.788 403.693L137.277 402.672H136.766L136.511 405.736H136.255L136 401.65L136.255 398.586Z" fill="#242529"/>
<path d="M308.627 143.734H309.904L309.393 144.245L309.904 145.522L307.35 145.777H304.797L305.818 145.267L305.308 144.245L305.818 143.99L308.627 143.734Z" fill="#252120"/>
<path d="M341.058 228.773H350.761L351.527 229.029L356.635 229.54L357.401 230.05L352.549 229.795H350.761L350.506 229.54L340.547 229.284L341.058 228.773Z" fill="#1F1C1D"/>
<path d="M258.829 219.07L259.084 219.836L258.829 226.22L258.318 225.454V222.901H257.297V220.602L258.574 219.326L258.829 219.07Z" fill="#141920"/>
<path d="M292.79 189.445L294.067 189.956L293.812 190.722H289.471L288.194 190.467V190.977H286.406L287.428 190.211H288.449L288.705 189.701L292.79 189.445Z" fill="#161C24"/>
<path d="M184.518 257.625L185.284 257.88L185.029 258.902H184.518L184.263 259.923L182.986 261.711L181.709 264.264L180.943 265.03L180.688 264.009L183.752 258.902L184.518 257.625Z" fill="#1E1C1C"/>
<path d="M276.191 186.383H279L277.978 186.894L277.723 187.66L276.702 188.426H276.191L275.936 189.192L274.914 189.447V187.915L275.68 186.638L276.191 186.383Z" fill="#171414"/>
<path d="M218.227 238.477L220.27 238.732L223.079 239.498L223.335 238.732V239.753L222.058 240.009L221.547 240.264L217.972 239.243L212.609 238.987V238.732L218.227 238.477Z" fill="#252121"/>
<path d="M362.25 104.922L363.271 105.943L365.314 109.518L367.102 114.37V115.902L366.591 115.136L365.314 111.306L364.548 110.029L363.782 108.242L362.25 105.433V104.922Z" fill="#373536"/>
<path d="M387.79 338.062L388.3 339.084L389.066 342.914V344.191H388.556L388.045 342.404L387.534 341.638L387.023 338.829L387.79 338.062Z" fill="#1F1F21"/>
<path d="M220.78 127.391H221.035L220.78 129.689L219.758 135.562L219.503 138.627H218.992L219.248 134.03L220.524 128.157L220.78 127.391Z" fill="#1F1C1D"/>
<path d="M194.735 245.117L195.245 245.373L193.969 246.905L192.692 247.926L192.947 248.692H192.436L191.926 249.714L191.16 250.48L189.883 250.991L190.138 249.969L191.926 248.182L193.713 246.139L194.735 245.117Z" fill="#1B191A"/>
<path d="M278.49 192.25H279.256L280.533 194.804L281.299 195.57V196.08L280.277 195.57L279.767 195.059L279.511 195.57L278.234 194.293V192.505L278.49 192.25Z" fill="#181516"/>
<path d="M316.539 182.297L317.561 182.808L318.582 185.361V186.638H317.05L317.305 184.85L316.539 183.829V182.297Z" fill="#1D1917"/>
<path d="M384.722 322.742H384.977L385.488 325.296V327.849L384.977 328.36L384.211 326.573V324.274L384.722 322.742Z" fill="#171515"/>
<path d="M231.25 228.258H232.527L232.016 228.769L229.973 229.79L226.909 232.854L226.398 232.088L227.42 231.322L228.441 229.79L231.25 228.258Z" fill="#111012"/>
<path d="M260.108 127.133L260.874 127.388L260.618 127.899L262.406 128.41V128.665L257.809 128.41L254.234 127.899V127.644H259.342L260.108 127.133Z" fill="#1F1C1D"/>
<path d="M166.641 388.625H169.194L171.748 389.646V390.157L170.982 390.413L167.407 389.646L167.151 389.136H166.641V388.625Z" fill="#141C25"/>
<path d="M366.336 237.711H366.847L367.357 238.477L368.379 238.988V239.498L368.89 239.754H368.379V240.265L369.145 240.52L368.379 240.775L368.123 242.052L367.357 241.031L366.336 238.732V237.711Z" fill="#1F1C1D"/>
<path d="M264.445 141.438L268.786 141.948L270.063 142.204V142.459L267.765 142.714V143.225L268.531 143.736L265.467 143.48V143.225L266.744 142.97L265.977 142.204L264.445 141.693V141.438Z" fill="#25201F"/>
<path d="M218.484 147.82L218.995 148.586L219.25 155.226L218.74 154.715L218.484 153.949V147.82Z" fill="#111012"/>
<path d="M175.327 273.461H175.837L175.582 275.759L174.305 277.802L174.05 277.036L173.539 277.291L174.05 275.759L175.327 273.461Z" fill="#1C191A"/>
<path d="M204.951 326.32L205.206 327.342V329.64H204.44L204.185 331.172H203.93V328.874L204.44 326.576L204.951 326.32Z" fill="#191514"/>
<path d="M220.016 160.078L220.526 160.844L221.803 164.93L221.037 165.951L220.016 162.121V160.078Z" fill="#151416"/>
<path d="M302.494 186.891H304.026L303.515 188.167L301.472 188.423L300.706 188.678V187.912L300.195 187.401L302.494 186.891Z" fill="#1C1F24"/>
<path d="M193.711 378.156L194.477 378.412L194.732 378.922L195.498 379.178V379.688H200.606V379.944H193.711V378.156Z" fill="#201D1E"/>
<path d="M207.498 315.086L208.009 315.597L207.753 318.15L206.477 318.916L206.732 316.363L206.987 315.341L207.498 315.086Z" fill="#181414"/>
<path d="M177.876 270.141V270.907L175.833 274.992L175.578 274.226L175.833 272.439L176.855 271.162L177.876 270.141Z" fill="#201D1D"/>
<path d="M404.641 256.352L405.662 256.607L408.726 261.714L408.471 262.48L406.939 260.182V259.416H406.428L405.151 257.118L404.641 256.352Z" fill="#181618"/>
<path d="M196.268 243.836L196.779 244.091L196.268 244.602L196.523 245.113H196.013L195.502 246.134H194.991V246.645L193.204 248.177L192.438 247.922L193.204 247.666L193.459 246.9L194.48 245.879H194.991L195.502 244.602L196.268 243.836Z" fill="#181617"/>
<path d="M390.086 360.789L391.618 361.3V363.598L391.107 363.853L390.341 363.343L390.086 360.789Z" fill="#171516"/>
<path d="M189.629 250.477H190.395V251.243H189.884L189.373 252.519L188.607 253.796L187.586 254.052V253.286L189.629 250.477Z" fill="#201D1D"/>
<path d="M386.513 332.703L387.024 332.958L387.279 333.98V336.534L386.769 336.789L386.258 335.257L386.513 332.703Z" fill="#181514"/>
<path d="M413.836 272.18L414.857 273.201L416.645 276.521V278.053L416.134 277.542L414.857 274.478L414.091 273.201L413.836 272.18Z" fill="#1F1C1D"/>
<path d="M220.011 157.781H220.266L221.288 161.612L221.032 162.633L220.266 160.846L219.755 161.101L219.5 159.313H220.011V157.781Z" fill="#201D1F"/>
<path d="M316.284 182.297H316.54L317.05 184.34L317.561 184.85L317.05 186.383L316.284 185.361L315.773 182.552L316.284 182.297Z" fill="#141C25"/>
<path d="M256.531 139.906L259.34 140.162L260.106 140.672L259.34 140.928V141.949L257.297 141.694V141.438L258.574 141.183L257.297 140.672L256.531 139.906Z" fill="#262120"/>
<path d="M200.35 349.047L200.86 349.302V351.09L199.839 351.6L199.328 352.367L199.583 350.068L200.35 349.047Z" fill="#191615"/>
<path d="M178.392 267.844H178.902V269.121L178.392 270.142L176.859 271.674L177.115 270.142L178.392 267.844Z" fill="#1C191A"/>
<path d="M389.061 344.195H389.316L389.571 346.494L388.805 346.749L388.294 346.494L388.039 344.706H388.805L389.061 344.195Z" fill="#1D1F23"/>
<path d="M385.49 328.359L386.256 329.125V331.679H385.49L385.234 329.892L385.49 329.125V328.359Z" fill="#131011"/>
<path d="M316.539 182.297L317.561 182.808L318.071 184.595L316.794 184.34L316.539 183.829V182.297Z" fill="#1A1615"/>
<path d="M390.594 356.195H390.849L391.104 358.238H391.615V361.303L391.104 361.047L390.594 358.494V356.195Z" fill="#141C25"/>
<path d="M386.253 330.148H386.508L386.764 332.702L386.508 333.979H385.998L385.742 333.468V331.936L386.253 330.148Z" fill="#202226"/>
<path d="M184.519 257.625L185.285 257.88L185.03 258.902H184.519L184.264 259.923L183.498 260.689L183.242 259.668L184.519 257.625Z" fill="#211E1E"/>
<path d="M316.029 167.227H316.795L317.05 170.291L316.54 171.057V168.759H316.029L315.773 167.482L316.029 167.227Z" fill="#1B1F25"/>
<path d="M443.203 419.781L443.969 420.547L444.225 422.08H443.714V424.633H443.458L443.203 419.781Z" fill="#2C2B2E"/>
<path d="M389.062 346.492L389.829 346.748L390.084 348.024V350.323L389.573 349.557L389.062 347.003V346.492Z" fill="#1A1615"/>
<path d="M412.044 267.586L412.811 268.607L412.3 268.863L413.832 271.416L413.577 272.182L412.811 270.906L412.044 269.884L411.789 268.607L412.044 267.586Z" fill="#1F1C1D"/>
<path d="M314.751 188.68L315.006 189.701L314.751 190.978H314.24L313.985 191.489L313.219 191.233L313.474 190.212L314.24 189.446H314.751V188.68Z" fill="#3B3634"/>
<path d="M363.273 102.625L364.295 103.391L365.061 104.157L365.316 105.945L364.55 105.689L363.273 103.391V102.625Z" fill="#E0E2E2"/>
<path d="M444.477 417.734H444.732L444.987 421.565L445.498 421.82L444.732 422.586L444.477 421.82V417.734Z" fill="#39302B"/>
<path d="M277.474 189.188L278.496 189.443V191.741L277.985 190.72H277.474L277.219 189.698L277.474 189.188Z" fill="#111012"/>
<path d="M264.699 153.438L265.72 153.693L264.443 154.97L263.933 155.225V154.714L263.422 154.459L264.188 153.693L264.699 153.438Z" fill="#1F2226"/>
<path d="M424.561 381.734H425.838L425.582 382.245L426.604 383.011L422.773 382.756V382.5L424.561 382.245V381.734Z" fill="#2C2A2B"/>
<path d="M194.736 245.117L195.246 245.373L193.97 246.905L192.438 248.182V247.415L194.736 245.117Z" fill="#1F1D1D"/>
<path d="M234.566 180.25H234.821V181.527L234.055 182.293L233.289 182.038L233.544 181.016H234.055V180.505L234.566 180.25Z" fill="#120F10"/>
<path d="M219.25 156.25L219.761 156.761L220.016 157.527V159.314H219.505L219.25 158.804V156.25Z" fill="#121113"/>
<path d="M203.412 332.195H203.922V334.494H203.412L203.156 335.515V333.217L203.412 332.195Z" fill="#1E1917"/>
<path d="M364.547 235.406L365.824 236.428L366.079 239.237L365.568 238.471L364.547 235.917V235.406Z" fill="#1E1B1C"/>
<path d="M309.394 143.992H310.67V144.503L311.436 145.014L308.883 145.269L309.649 145.014V144.503L308.883 144.248L309.394 143.992Z" fill="#0D0C0E"/>
<g clip-path="url(#clip3_773_574)">
<path d="M90.0394 32.434C102.034 23.3436 141.776 23.1893 165.793 31.6799C191.772 40.7984 204.503 50.5241 226.484 78.3421C227.056 76.2491 227.341 74.4882 227.865 72.9665C228.389 71.2066 228.961 69.3517 229.868 67.7841C230.107 67.3089 231.398 66.8861 232.02 67.0794C232.642 67.2727 233.265 68.4186 233.217 68.9899C232.649 74.4168 231.889 79.7476 231.178 85.2216C230.893 86.9825 229.746 87.8346 227.88 87.4928C220.896 85.8896 213.864 84.3815 206.832 82.6353C205.254 82.1995 203.722 80.9543 201.808 79.9931C205.391 76.6754 208.598 78.8807 211.611 79.0848C214.768 79.2419 217.877 79.9703 221.799 80.5118C216.529 71.2008 210.16 63.8376 202.693 57.4695C175.409 34.0093 143.453 26.0545 108.258 30.0395C103.668 30.5903 99.1732 31.6655 94.6305 32.3594C93.3392 32.306 92.1435 32.3006 90.0394 32.434Z" fill="#FECE00"/>
</g>
<g clip-path="url(#clip4_773_574)">
<path d="M370.218 202.08C373.197 200.184 375.628 198.81 377.94 197.278C379.272 196.352 380.76 195.305 379.239 192.787C374.215 195.261 369.148 197.22 364.644 200.441C362.725 201.77 362.62 203.197 363.744 205.324C364.145 206.111 364.704 206.778 365.182 207.407C367.935 210.821 370.687 214.236 373.557 217.61C374.474 218.749 375.589 219.885 377.116 218.758C378.486 217.752 378.353 216.209 377.631 214.87C376.789 213.374 375.752 212.079 374.754 210.704C374.035 209.761 373.238 208.78 372.91 207.437C373.385 207.669 373.86 207.901 374.336 208.134C379.643 210.727 382.162 210.381 386.62 206.448C390.138 203.239 392.903 199.563 394.596 195.067C395.019 193.992 395.443 192.918 395.828 191.923C397.72 187.623 400.079 187.002 403.577 190.092C405.366 191.656 406.843 193.659 408.437 195.423C413.14 200.876 417.284 201.423 423.238 197.235C427.703 194.094 431.372 190.17 434.087 185.385C434.901 183.91 435.754 182.355 436.767 181.076C438.482 178.957 439.979 178.9 441.577 181.06C443.332 183.298 444.657 185.818 446.099 188.298C447.14 189.989 447.906 191.842 449.065 193.493C451.461 196.832 454.751 198.736 458.962 197.935C462.11 197.305 465.295 196.397 468.36 195.332C470.364 194.635 471.967 193.151 471.978 190.101C470.955 190.39 470.13 190.677 469.226 190.925C466.002 191.912 462.779 192.9 459.474 193.651C456.287 194.361 453.987 192.842 452.463 190.126C451.179 187.725 450.131 185.241 448.808 182.919C447.567 180.833 446.364 178.668 444.732 176.984C441.267 173.22 436.577 173.393 433.343 177.431C431.862 179.27 430.62 181.424 429.497 183.536C427.17 187.722 423.89 191.048 420.051 193.706C416.838 195.882 415.298 195.622 412.749 192.799C410.638 190.486 408.722 187.973 406.339 186.019C404.828 184.69 402.691 183.843 400.637 183.431C397.082 182.679 394.258 184.256 392.593 187.484C391.742 189.237 390.932 191.108 390.398 193.015C389.059 197.388 386.172 200.709 382.967 203.677C381.403 205.082 379.753 205.655 377.614 204.61C375.476 203.565 373.184 203.037 370.218 202.08Z" fill="#EFEFEF"/>
</g>
<defs>
<clipPath id="clip0_773_574">
<rect width="177" height="40" fill="white" transform="translate(0 228)"/>
</clipPath>
<clipPath id="clip1_773_574">
<rect width="109" height="29" fill="white" transform="translate(447 319)"/>
</clipPath>
<clipPath id="clip2_773_574">
<rect width="107" height="40" fill="white" transform="translate(93 560)"/>
</clipPath>
<clipPath id="clip3_773_574">
<rect width="150" height="36" fill="white" transform="translate(106.195 0.265625) rotate(26.6648)"/>
</clipPath>
<clipPath id="clip4_773_574">
<rect width="114" height="103" fill="white" transform="matrix(-1 0 0 1 473 149)"/>
</clipPath>
</defs>
</svg>
