<svg width="318" height="512" viewBox="0 0 318 512" fill="none" xmlns="http://www.w3.org/2000/svg">
<path d="M121.557 155.026L121.544 155.026L121.531 155.026L109.54 155.281H98.3143H98.1803L98.0511 155.316L95.2422 156.083L95.0856 156.125L94.9506 156.215L92.6523 157.747L92.5376 157.824L92.4478 157.929L90.9156 159.716L90.8355 159.81L90.7804 159.92L88.7375 164.006L88.6863 164.108L88.6596 164.219L87.1274 170.603L87.125 170.614L87.1228 170.624L84.0584 184.669L84.0584 184.669L84.0569 184.676L82.014 194.379L82.0138 194.381L79.7171 205.354L79.7155 205.361L78.4403 211.227L78.4363 211.246L78.4329 211.264L76.3933 222.737L74.3555 232.162L74.3543 232.168L72.3126 241.355L72.3126 241.355L72.3098 241.368L71.0359 247.483L69.7624 252.832L69.7582 252.849L69.7546 252.867L66.437 269.456L66.4349 269.466L63.3726 284.011L63.3724 284.013L61.0741 294.993L61.0737 294.995L59.5415 302.401L59.5309 302.452L59.5257 302.504L59.2703 305.058L59.1619 306.142L60.2519 306.157L79.1486 306.412H79.1621L214.504 306.412L214.51 306.412L257.666 306.157L258.66 306.151V305.157V304.391V304.279L258.635 304.169L257.362 298.569L257.358 298.551L256.089 292.46L256.085 292.44L253.791 280.205L253.791 280.203L252.514 273.31L252.513 273.303L252.512 273.296L251.493 268.203L251.49 268.189L250.216 261.308L250.215 261.301L250.214 261.294L247.66 248.526L247.657 248.512L247.654 248.497L246.892 245.196L245.874 239.853L245.872 239.844L244.596 233.46L244.594 233.452L243.321 227.34L242.302 221.482L242.299 221.463L242.295 221.444L240.766 214.31L239.236 205.898L239.234 205.887L239.232 205.877L236.426 192.103L236.423 192.088L234.894 183.931L234.893 183.924L234.891 183.916L231.827 168.85L231.818 168.808L231.806 168.767L230.529 164.426L230.504 164.341L230.465 164.261L228.932 161.197L228.875 161.082L228.791 160.985L227.003 158.942L226.916 158.843L226.805 158.769L224.507 157.237L224.42 157.179L224.324 157.14L221.77 156.119L221.659 156.074L221.54 156.057L217.965 155.547L217.895 155.537H217.824H215.173L214.918 155.281H214.504H175.18H175.178L121.557 155.026Z" stroke="black" stroke-width="2"/>
<path d="M69.969 399.151H69.1492L68.9884 399.955L68.733 401.232L68.7136 401.329V401.428V469.865V470.279L69.0065 470.572L69.2619 470.828L69.5548 471.12H69.969H150.153H151.139L151.152 470.134L151.408 450.982H151.408V450.968L151.408 430.795L151.408 430.783L151.152 408.822L151.149 408.545L151.004 408.31L149.033 405.107L147.539 399.877L147.332 399.151H146.577H69.969Z" stroke="black" stroke-width="2"/>
<path d="M172.114 399.151H171.699L171.407 399.444L171.151 399.7L170.942 399.908L170.88 400.197L170.136 403.671L169.191 405.796L167.707 408.024L167.62 408.153L167.577 408.304L167.066 410.091L167.028 410.226V410.366V469.865V470.279L167.321 470.572L167.576 470.828L167.869 471.12H168.283H248.211H248.626L248.918 470.828L249.174 470.572L249.467 470.279V469.865V400.407V399.993L249.174 399.7L248.918 399.444L248.626 399.151H248.211H172.114Z" stroke="black" stroke-width="2"/>
<path d="M70.2243 326.629H69.8101L69.5172 326.922L69.2619 327.177L68.9848 327.454L68.9697 327.846L68.7144 334.485L68.7136 334.504V334.524V396.321V396.42L68.733 396.517L68.9884 397.794L69.1492 398.598H69.969H146.577H146.992L147.285 398.305L147.54 398.05L147.833 397.757V397.343L147.833 363.635L147.833 363.627L147.577 330.685L147.577 330.644L147.573 330.603L147.318 327.794L147.285 327.433L147.029 327.177L146.774 326.922L146.481 326.629H146.067H70.2243Z" stroke="black" stroke-width="2"/>
<path d="M172.369 326.629H172.133L171.922 326.734L171.411 326.99L170.858 327.266V327.884V397.343V397.757L171.151 398.05L171.407 398.305L171.7 398.598H172.114H247.956H248.192L248.403 398.492L248.914 398.237L249.467 397.961V397.343V327.884V327.47L249.174 327.177L248.919 326.922L248.626 326.629H248.212H172.369Z" stroke="black" stroke-width="2"/>
<path d="M79.162 306.2H79.1481L79.1342 306.201L69.9412 306.456L69.3424 306.473L69.0746 307.008L68.8192 307.519L68.7136 307.73V307.966V324.565V324.979L69.0065 325.272L69.2619 325.527L69.5548 325.82H69.969H248.722H249.136L249.429 325.527L249.685 325.272L249.977 324.979V324.565V307.966V307.73L249.872 307.519L249.617 307.008L249.342 306.46L248.729 306.456L214 306.2V306.2H213.993H79.162Z" stroke="black" stroke-width="2"/>
<path d="M168.283 471.93H167.869L167.576 472.223L167.321 472.478L167.028 472.771V473.185V509.191V509.605L167.321 509.898L167.576 510.153L167.869 510.446H168.283H248.467H249.467V509.446V472.93V471.93H248.467H168.283Z" stroke="black" stroke-width="2"/>
<path d="M69.969 471.93H69.5548L69.2619 472.223L69.0065 472.478L68.7136 472.771V473.185V509.191V509.605L69.0065 509.898L69.2619 510.153L69.5548 510.446H69.969H150.153H151.153V509.446V472.93V471.93H150.153H69.969Z" stroke="black" stroke-width="2"/>
<path d="M149.131 326.629H148.717L148.424 326.922L148.169 327.177L147.876 327.47V327.884L147.876 350.611L147.876 350.617L148.131 394.795L148.131 394.809L148.132 394.823L148.387 402.229L148.391 402.335L148.416 402.437L148.672 403.458L148.694 403.547L148.731 403.63L150.008 406.439L150.071 406.576L150.171 406.689L152.214 408.988L152.316 409.102L152.447 409.181L155.001 410.713L155.128 410.789L155.273 410.825L158.337 411.592L158.498 411.632L158.663 411.618L161.727 411.363L161.9 411.348L162.058 411.276L164.867 410L165.004 409.937L165.117 409.837L167.415 407.794L167.491 407.727L167.551 407.646L169.083 405.603L169.172 405.485L169.223 405.345L170.244 402.536L170.3 402.384L170.304 402.223L170.56 393.285L170.56 393.271V393.257L170.56 383.042L170.56 383.038L170.305 327.624L170.3 326.629H169.305H149.131Z" stroke="black" stroke-width="2"/>
<path d="M75.3316 164.985H75.2863L75.2411 164.989L72.4321 165.244L72.3444 165.252L72.2595 165.275L69.4505 166.042L69.4238 166.049L69.3974 166.058L65.567 167.334L65.4731 167.366L65.3871 167.415L63.5996 168.436L63.562 168.458L63.5265 168.482L60.2068 170.781L60.1644 170.81L60.1252 170.844L58.3377 172.376L57.9885 172.675V172.721L57.7706 172.939L56.7492 173.96L56.6345 174.075L56.5619 174.22L56.3276 174.689H55.8997L55.6028 175.134L55.1657 175.79L53.2227 177.49L53.1046 177.593L53.0238 177.728L52.2577 179.005L52.2164 179.073L52.1867 179.148L51.9274 179.796H51.5585L51.2617 180.241L50.7623 180.99L48.7314 183.783L48.6403 183.908L48.5914 184.055L48.3086 184.903H47.9525L47.6612 185.389L46.8951 186.665L46.8865 186.68L46.8784 186.694L45.6059 188.985L42.8014 193.829L42.795 193.84L42.7889 193.851L41.2567 196.66L41.2532 196.667L41.2497 196.673L38.6995 201.519L37.1709 204.321L37.0488 204.545V204.8V206.587V207.419L37.8667 207.571L44.7615 208.847L44.7718 208.849L44.7821 208.851L72.8719 213.448L72.8941 213.451L72.9165 213.454L77.2577 213.965L77.739 214.021L78.0816 213.679L78.5923 213.168L78.7801 212.98L78.85 212.724L80.3822 207.106L80.3902 207.076L80.3964 207.047L84.2252 188.668L84.2268 188.661L86.2681 179.22L86.2703 179.209L86.2723 179.199L88.0599 170.006L88.0783 169.912V169.815V167.772V167.358L87.7854 167.065L87.53 166.81L87.3571 166.637L87.124 166.563L82.2722 165.031L82.1252 164.985H81.971H75.3316Z" stroke="black" stroke-width="2"/>
<path d="M245.312 164.998L245.2 164.98L245.087 164.987L236.66 165.497L236.585 165.502L236.511 165.518L232.936 166.284L232.812 166.31L232.698 166.367L231.677 166.878L231.124 167.154V167.772V169.56V169.656L231.142 169.751L232.93 178.944L232.93 178.944L232.932 178.957L235.485 191.21L235.995 193.76L235.995 193.76L235.997 193.77L237.019 198.622L237.03 198.678L237.048 198.732L237.528 200.17L237.771 202.115L237.783 202.213L237.814 202.307L238.549 204.511L239.048 208.499L239.051 208.529L239.057 208.559L239.823 212.645L239.88 212.949L240.099 213.168L240.865 213.934L241.229 214.298L241.737 214.213L255.521 211.916L255.526 211.915L277.737 208.341L277.779 208.334L277.821 208.324L280.885 207.557L281.642 207.368V206.587V205.055V204.819L281.537 204.608L281.297 204.128L280.033 201.096L280.005 201.028L279.968 200.966L279.205 199.694L277.452 196.688L276.71 194.958L276.45 194.351H276.153L276.128 194.311L274.892 192.333L274.156 190.616L273.896 190.01H273.726V189.957L273.574 189.714L272.297 187.671L272.004 187.201H271.786L271.67 186.505L271.531 185.669H271.047L271.016 185.622L269.229 182.813L268.934 182.349H268.595L268.312 181.501L268.154 181.027L267.68 180.869L267.388 180.771L267.291 180.48L267.249 180.353L267.174 180.241L265.642 177.943L265.345 177.498H265.224L265.006 177.28L264.24 176.514L264.126 176.399L263.98 176.326L263.512 176.092V175.785L263.219 175.492L262.453 174.726L262.338 174.611L262.193 174.539L261.724 174.304V173.998L261.431 173.705L259.644 171.917L259.602 171.875L259.555 171.838L255.98 169.029L255.909 168.974L255.83 168.931L251.488 166.633L251.399 166.586L251.303 166.558L246.962 165.281L246.903 165.264L246.844 165.254L245.312 164.998Z" stroke="black" stroke-width="2"/>
<path d="M237.742 209.141L238.252 209.907L240.295 219.1L241.061 222.42L241.827 226.506L242.594 229.825L243.104 233.656L243.615 235.954L244.636 240.295L245.147 243.104L245.913 246.935L246.935 250.765L247.445 252.297L247.701 254.34L248.212 254.851L248.467 253.319H248.722L253.574 277.578L256.383 291.112V292.644L257.149 291.878L259.192 289.069L261.49 286.516L263.278 284.728L267.364 281.919L271.194 280.132L276.301 278.855L283.451 278.089H289.58L294.177 278.599L298.262 279.876L300.816 281.408L301.582 281.664L301.327 280.387V278.089L302.093 278.344L302.348 277.833V278.599L303.114 278.855L304.646 285.494V287.282L302.859 289.325L300.561 291.368L298.518 292.9L298.773 297.496L299.028 299.284L303.114 302.348L305.668 304.646L309.243 308.221L311.797 311.541L313.839 314.861L315.627 318.436L316.904 322.266L317.67 326.607V331.459L316.904 336.056L315.627 340.142L313.329 344.993L311.03 348.058L308.221 351.378L307.2 352.399H306.689L306.434 351.633L305.923 346.526L304.646 339.12L303.114 334.268L301.582 329.927L298.773 324.565L296.73 322.011L294.687 320.223L291.623 318.691L288.814 317.925H284.728L281.409 318.947L279.11 320.479L277.323 322.266L275.28 325.586L274.003 328.906L273.748 330.693V335.8L274.514 339.886L275.28 343.461L276.046 349.335L276.301 353.42V357.251L274.769 356.995L269.662 354.186L266.598 351.888L264.044 349.59L261.49 347.036L258.681 342.951L256.638 338.865L255.362 334.779L254.596 330.438V325.841L255.362 320.989L256.638 317.159L258.681 313.073L260.724 310.009L263.278 307.2L263.533 306.689H264.044L264.555 305.668L265.065 304.902L264.555 300.816L264.299 299.794L257.66 299.028L258.426 302.603L258.171 304.902L257.149 305.412H248.722V305.157H256.638L255.617 301.327L253.829 292.644L252.297 284.473L251.276 278.855L249.488 269.151L248.212 263.022L246.679 255.106L245.147 247.445L243.87 241.317L242.594 234.933L241.317 228.293L240.295 223.186L238.763 215.27L237.742 210.418V209.141ZM283.962 284.728L278.855 285.239L274.258 286.516L270.173 288.303L265.321 291.368L265.065 291.623V293.921L266.598 302.348L267.108 304.902L267.364 305.412L266.087 306.945L263.022 310.009L260.724 313.329L258.426 317.67L256.894 322.777L256.383 325.841V330.949L257.405 335.8L258.937 339.631L260.724 342.951L263.278 346.27L265.576 348.824L268.896 351.633L273.492 354.442L274.514 354.953V351.633L273.748 345.76L272.982 342.695L269.662 337.843L268.13 334.524L267.108 330.183V325.075L268.385 320.989L270.173 317.414L271.96 315.116L274.769 312.307L278.344 310.009L281.664 308.732L284.473 308.221H288.559L292.9 309.243L296.475 311.03L298.773 312.818L300.816 314.605L303.114 317.67L305.413 322.011L306.179 325.331V330.949L305.668 333.502V336.056L306.945 341.674L307.966 348.569L308.732 348.313L311.541 344.227L313.584 340.397L315.372 335.034L315.882 331.97V326.352L314.606 320.989L313.329 317.925L311.286 314.095L309.498 311.541L307.2 308.732L304.646 305.923L301.837 303.625L298.262 300.816L297.241 300.561L296.73 294.943L295.964 287.537L295.198 286.26L291.112 285.239L287.537 284.728H283.962Z" fill="#161414"/>
<path d="M38.0489 203.778L38.3042 204.289L38.0489 206.843L34.7292 213.227L32.6863 216.802L28.6005 224.973L26.3022 235.188L21.4504 257.404L16.8539 278.344L16.0878 281.408L15.8324 281.919L16.8539 281.408L19.4075 279.876L22.2165 278.855L24.7701 278.344L27.3237 278.089H33.197L41.1132 278.855L45.7097 279.876L49.7955 281.664L52.3491 283.196L55.9242 286.005L58.2224 288.558L60.01 291.112L60.2653 292.644H59.7546L60.2653 295.964L60.7761 297.751L60.5207 298.262L59.7546 298.517L59.2439 299.794L58.9885 299.028L53.3706 299.794L52.8598 303.114V305.412L55.6688 308.221L58.7332 312.562L60.7761 316.393L62.3082 320.734L63.0743 324.82V330.948L62.0529 336.311L60.01 341.418L57.9671 344.738L55.9242 347.292L53.6259 349.845L50.3062 352.654L46.2204 355.208L41.8793 357.506H41.3686L41.6239 350.867L42.6454 342.44L43.9222 336.566V330.182L43.1561 327.118L41.1132 323.032L39.0703 320.734L36.2613 318.946L34.4738 318.18L33.197 317.925H28.8559L24.7701 319.202L21.9611 320.989L19.9182 323.288L17.8753 326.607L15.8324 330.948L13.2788 338.609L12.2574 343.461L11.2359 352.654L9.9591 351.888L8.17157 349.845L6.12868 347.292L3.83042 343.716L2.04289 339.886L0.766085 335.545L0 330.182L0.255362 325.586L1.27681 320.734L2.80898 316.904L4.59651 313.584L7.91621 308.987L11.4913 305.157L14.5556 302.348L18.6414 299.284L19.1521 295.453V292.9L15.8324 290.091L13.7895 288.303L13.0234 287.282L13.2788 284.983L15.5771 274.769L19.6628 256.127L26.3022 225.739L27.0683 223.186L30.1327 217.568L33.197 211.695L36.2613 206.077L37.2828 204.289L38.0489 203.778ZM31.1541 284.728L25.5362 285.494L22.2165 286.515L21.7057 288.048L20.4289 300.305L16.3431 303.369L13.5342 305.668L10.7252 308.477L8.42693 311.286L5.87332 315.116L3.83042 319.202L2.55362 323.032L2.04289 325.33L1.78753 327.629V331.204L2.55362 336.056L4.08579 340.397L6.12868 344.227L9.19302 348.568L9.70374 347.802L11.2359 339.12L12.002 336.056V333.247L11.4913 329.672V325.841L12.5127 321.755L14.5556 317.67L16.5985 315.116L19.4075 312.307L22.9825 310.009L26.3022 308.732L29.1112 308.221H33.197L37.5382 309.243L41.1132 311.03L44.9436 314.095L47.4973 317.414L49.5401 321.5L50.3062 323.798L50.817 326.607L50.5616 330.693L49.5401 334.779L47.4973 338.865L44.9436 342.44L44.1776 344.738L43.4115 350.101L43.1561 354.952L45.9651 353.42L49.0294 351.377L52.3491 348.568L54.1367 346.781L56.9456 342.95L59.2439 338.609L60.7761 334.013L61.5421 329.161L61.2868 324.82L60.2653 320.223L58.9885 316.904L56.6903 312.562L53.8813 308.987L50.817 305.923H50.3062L51.8384 298.517L52.8598 292.9L52.6045 291.623L50.3062 289.835L45.4544 287.282L40.0918 285.494L37.2828 284.983L34.2185 284.728H31.1541Z" fill="#171414"/>
<path d="M152.196 0H164.198L175.944 1.02145L183.605 2.04289L191.011 3.57506L198.671 6.12868L205.055 9.19302L209.907 12.2574L214.759 15.8324L218.59 19.4075L221.909 22.7272L225.229 27.0683L228.293 31.6648L231.102 37.0274L232.379 40.8579L233.656 47.2419L234.677 57.4564L235.444 69.4584V81.7157L234.677 86.8229L233.401 91.9302L231.868 96.016L229.826 100.102L227.783 103.166L225.74 104.954L224.974 105.209H222.165V111.338L221.909 117.211H221.654L221.399 112.104L220.888 110.827L220.633 124.616H220.377L220.122 106.741L219.866 103.166L217.568 97.8035L216.291 92.9516L215.525 88.3551L215.27 82.9925L215.781 75.587V72.012L215.015 68.9476L213.738 67.6708L211.95 66.9047L210.163 66.6494H201.225L195.862 67.4155L190.245 68.9476L184.371 70.7352L177.476 72.012L171.348 72.7781L168.028 73.0334H155.771L147.088 72.5227L138.406 71.7566L128.192 70.2244L119.765 68.4369H115.679L113.125 69.4584L110.316 71.7566L108.529 74.3102L106.997 77.6299L105.72 82.4818L103.677 93.207L101.889 100.102L99.8465 105.975L98.8251 108.529L98.5697 126.915H98.3143L98.059 123.85L97.8036 114.913L97.0375 114.147V125.638H96.7822V110.316L94.9946 110.572L92.9517 109.55L91.1642 107.507L89.1213 103.932L86.5677 97.8035L84.2694 90.1426L83.248 85.8015L82.4819 80.9496L81.9712 74.5656V67.6708L82.7373 60.01L84.0141 52.8598L85.5463 46.7312L88.3552 38.5596L91.4196 31.6648L94.4839 26.3022L96.5268 23.2379L98.5697 20.4289L101.634 16.8539L104.954 13.7895L109.295 10.7252L112.87 8.68229L119.254 6.12868L126.149 4.08579L133.81 2.29825L141.215 1.02145L148.621 0.255362L152.196 0ZM153.472 1.27681L144.535 2.04289L139.172 2.80898L132.788 4.08579L123.595 6.38404L116.7 8.68229L113.636 9.9591L109.55 12.002L108.018 13.0234L104.698 15.5771L102.145 18.1307L100.102 20.9396L98.3143 23.4933L95.5054 27.8344L93.2071 31.6648L89.8874 38.815L87.8445 43.9222L85.5463 51.8384L84.2694 57.7117L83.5034 62.5636L83.248 65.6279V77.8853L83.5034 81.4603L84.2694 86.0569L87.3338 96.2713L89.3767 101.379L91.4196 105.72L93.4625 108.273L94.7393 109.295H96.2714L97.2929 108.273L99.3358 103.166L100.613 98.8249L102.145 93.207L103.677 85.5461L105.209 78.396L106.486 74.5656L108.273 71.7566L110.572 69.203L113.125 67.6708L116.445 66.6494L120.275 66.9047L128.447 68.4369L134.065 69.4584L143.003 70.4798L153.983 71.2459H169.816L176.2 70.4798L183.35 69.203L191.011 67.1601L197.395 65.6279L202.246 65.1172H208.375L213.227 65.6279L215.27 66.6494L216.547 68.6923L217.057 71.2459V77.1192L216.802 80.1835L216.547 80.9496V87.589L218.079 94.2284L219.1 97.0374L221.143 101.889H221.654L222.165 103.166L223.442 104.188H224.463L225.74 102.911L227.527 100.612L229.315 97.8035L231.102 93.9731L232.635 89.1212L233.656 84.5247L234.167 80.4389V70.2244L233.401 58.7332L232.89 52.8598L231.868 45.7097L230.847 40.6025L229.315 36.5167L227.783 33.7077L225.995 30.8988L223.442 27.3237L221.399 24.7701L218.334 21.4504L215.781 18.8968H215.27L215.015 18.1307L213.738 16.8539L211.44 14.811L207.609 12.2574L203.523 9.9591L198.416 7.66085L192.287 5.61795L186.925 4.34115L181.307 3.3197L168.028 1.78753L161.389 1.27681H153.472Z" fill="#141112"/>
<path d="M123.34 144.812H122.925L122.632 145.104L122.377 145.36L122.084 145.653V146.067V154.238V154.653L122.377 154.946L122.632 155.201L122.925 155.494H123.34H194.585H194.709L194.828 155.464L195.849 155.209L196.607 155.019V154.238V146.067V145.136L195.678 145.069L192.103 144.814L192.068 144.812H192.032H123.34Z" stroke="black" stroke-width="2"/>
<path d="M176.2 107.507L178.498 107.763L180.541 108.784L181.562 109.806L182.584 112.359V113.636H181.051L180.03 113.125L179.264 115.424L178.242 120.275L176.455 123.85L174.412 126.149L171.348 127.936L167.517 129.213L163.176 129.979H155.005L149.642 128.958L145.812 127.426L143.513 125.638L141.47 123.34L139.683 119.254L138.917 116.445V114.913L139.683 113.636L140.194 113.381H143.003L148.365 114.402L152.706 114.913H160.622L165.474 114.147L169.816 112.87L173.391 111.338L174.923 110.061L175.433 109.295L175.944 107.763L176.2 107.507Z" fill="#221E1E"/>
<path d="M197.905 154.749H220.888L224.208 156.026L226.761 157.558L228.804 159.346L230.592 161.899L232.124 164.963L232.379 166.496L235.699 165.474L239.018 164.963H244.126L247.701 165.474L251.787 166.751L255.362 168.539L258.171 170.581L260.724 172.88L264.044 176.199L266.342 179.008L269.151 182.839L271.96 187.435L275.024 192.543L277.833 197.394L281.153 203.523L285.494 211.695L288.559 217.313L291.878 223.697L292.9 227.527L298.262 252.042L303.88 277.578V278.599L302.604 278.344L302.093 279.11L299.539 267.619L297.241 256.894L294.177 243.104L291.368 229.825L289.835 223.952L286.005 216.802L282.941 210.929L280.642 206.843L280.132 204.545L278.855 201.48L278.089 200.203L276.812 197.905L276.046 196.884L275.791 195.352H275.28L273.748 192.798L273.237 191.01H272.726L271.449 188.712V188.201H270.939L270.683 186.669H270.173L268.64 184.116L268.385 183.35H267.874L267.108 181.817L265.831 180.541L264.81 179.008V178.498H264.299L263.022 176.965L258.426 172.369L254.085 169.305L250.254 167.517L246.169 166.24L236.72 166.751L232.379 167.772V169.56L235.699 186.158L236.72 191.01L237.231 193.564L238.508 199.693L238.763 199.948L239.529 204.034L239.785 204.289L240.295 208.375L241.061 212.461V212.971H241.572L243.615 222.675L249.488 252.297V254.851L248.978 255.361L248.212 253.574V252.042L247.445 250.254L246.679 246.935L245.403 240.806L243.615 231.868L242.849 227.527L242.083 224.463L241.572 221.398L239.785 213.482L238.763 209.141L237.997 206.077L235.188 192.287L232.379 177.732L230.081 167.006L228.549 162.921L227.016 160.622L226.25 160.112V159.601L224.974 159.09L222.931 157.813L221.399 157.303V156.792L215.525 156.281L213.482 156.026H204.289L202.502 155.77H200.204L198.416 155.515L197.905 154.749Z" fill="#181616"/>
<path d="M152.195 0H164.197L175.944 1.02145L183.605 2.04289L191.01 3.57506L198.671 6.12868L205.055 9.19302L209.907 12.2574L214.759 15.8324L218.589 19.4075L221.909 22.7272L225.229 27.0683L228.293 31.6648L231.102 37.0274L232.379 40.8579L233.656 47.2419L234.677 57.4564L235.443 69.4584V81.7157L234.677 86.8229L233.4 91.9302L231.868 96.016L229.825 100.102L227.782 103.166L225.74 104.954L224.973 105.209H222.675V104.698L221.909 104.443L222.675 104.188H224.718L226.25 102.911L228.804 99.0803L230.847 95.2499L232.124 91.6748L233.4 86.5676L233.911 80.4389V70.2244L233.145 58.7332L232.634 52.8598L231.613 45.7097L230.591 40.6025L229.059 36.5167L227.527 33.7077L225.74 30.8988L223.186 27.3237L221.143 24.7701L218.079 21.4504L215.78 19.1521L213.738 17.3646L212.461 15.8324L208.375 13.0234L204.545 10.7252L199.693 8.42693L194.841 6.6394L188.201 4.85187L181.307 3.57506L168.028 2.04289L161.388 1.53217H153.472L144.535 2.29825L139.172 3.06434L132.788 4.34115L123.595 6.6394L116.7 8.93766L113.636 10.2145L109.55 12.2574L108.018 13.2788L104.698 15.8324L102.4 18.1307L100.357 20.9396L98.5695 23.4933L95.7605 27.8344L93.4622 31.6648L90.1425 38.815L88.0996 43.9222L85.8014 51.8384L85.2907 54.392H84.7799L84.2692 57.201L83.5031 61.0314L82.9924 65.6279L82.7371 66.9047H82.4817V62.0529L83.5031 55.4135L85.0353 48.5187L88.0996 39.3257L90.3979 33.9631L92.4408 29.8773L94.9944 25.5362L98.3141 20.6843L101.634 16.8539L104.954 13.7895L109.295 10.7252L112.87 8.68229L119.254 6.12868L126.149 4.08579L133.809 2.29825L141.215 1.02145L148.62 0.255362L152.195 0Z" fill="#131213"/>
<path d="M220.632 110.316L221.398 111.082L221.654 112.104L221.909 117.211V127.17L220.888 131.511L219.611 134.576L217.313 137.895L216.291 139.172L214.248 140.96L210.418 143.513L206.587 145.046L202.246 145.812L198.161 146.067L197.65 146.833H196.628V147.344L195.862 147.088V146.067H123.34L122.063 146.578L121.552 147.599L121.297 149.897H121.041V145.812H115.934L111.338 144.79L106.996 142.747L103.932 140.449L101.889 138.406L99.591 135.086L98.3142 132.533L97.2927 129.213L97.0374 127.936V114.147L97.8034 114.402L98.0588 114.913L98.3142 123.851L98.5695 126.915L99.8463 131.256L101.889 135.342L104.187 138.151L106.486 140.194L110.572 142.492L113.891 143.513L115.168 143.769L120.786 144.024L203.268 143.769L207.354 142.747L211.439 140.704L213.993 138.662L216.036 136.363L218.079 132.788L219.356 129.724L220.377 124.617L220.632 110.316Z" fill="#151313"/>
<path d="M204.8 43.4116H214.248L214.504 43.667V45.4545H204.289L198.416 46.2206L191.011 47.7528L172.624 52.3493L163.942 54.1368L157.303 55.1583L149.897 55.9243L145.812 56.1797H132.533L121.808 55.4136L112.104 53.8814L102.911 51.8386L100.102 50.8171V49.5403L101.123 49.2849L110.827 51.3278L120.531 52.86L128.192 53.6261L133.299 53.8814H144.024L151.685 53.3707L160.367 52.3493L167.517 51.0725L175.433 49.2849L192.543 45.1992L197.65 44.1777L201.48 43.667L204.8 43.4116Z" fill="#151B23"/>
<path d="M175.689 114.402H176.455L176.199 115.934L175.433 117.211H174.923L174.667 117.977L170.837 120.02L169.56 120.531V121.041L172.369 121.552L173.39 122.318V122.829L169.815 124.616L166.496 125.638L162.921 126.404L160.878 126.659H156.792L151.685 125.893L147.599 124.616L145.301 123.084L144.024 121.552L142.492 118.232V116.955L146.067 117.211L153.217 117.977H161.388L165.73 117.466L171.092 116.189L175.689 114.402Z" fill="#F5F7F6"/>
<path d="M188.201 22.7273H191.266L197.905 23.4934L203.523 24.7702L209.652 26.8131L210.162 27.0684V28.856L208.886 28.6006L204.034 27.0684L199.693 26.047L193.819 25.0255L190.755 24.7702H188.201L183.86 25.2809L177.987 26.5577L164.453 30.3881L158.069 32.1757L146.833 34.7293L138.15 36.0061L134.831 36.2615H125.382L118.488 35.7507L110.827 34.4739L103.932 32.6864L101.634 31.665V30.3881L103.932 30.6435L110.571 32.1757L116.445 33.1971L122.063 33.9632L125.382 34.2186H132.022L139.938 33.4525L147.344 32.1757L157.558 29.8774L165.73 27.5792L171.603 26.047L178.498 24.2595L183.35 23.238L188.201 22.7273Z" fill="#151B24"/>
<path d="M197.905 154.749H220.888L224.208 156.026L226.761 157.558L228.804 159.346L230.592 161.899L232.124 164.963V166.496L230.847 165.474V164.708H230.336L231.102 167.006L232.379 169.56L235.699 186.159L236.72 191.01L237.231 193.564L238.508 199.693L238.763 199.948L239.529 204.034L239.785 204.289L240.295 208.375L241.061 212.461V212.971H241.572L243.615 222.675L249.488 252.297V254.851L248.978 255.362L248.212 253.574V252.042L247.445 250.254L246.679 246.935L245.403 240.806L243.615 231.868L242.849 227.527L242.083 224.463L241.572 221.398L239.785 213.482L238.763 209.141L237.997 206.077L235.188 192.287L232.379 177.732L230.081 167.006L228.549 162.921L227.016 160.622L226.25 160.112V159.601L224.974 159.09L222.931 157.813L221.399 157.303V156.792L215.525 156.281L213.482 156.026H204.289L202.502 155.77H200.204L198.416 155.515L197.905 154.749Z" fill="#110F11"/>
<path d="M142.747 88.6104H144.535L147.088 89.6318L148.876 91.4193L149.897 93.2069L150.153 94.2283V96.5266L149.131 98.8248L147.344 100.868L145.301 101.889L142.747 102.145L140.449 101.378L138.917 100.357L137.385 98.3141L136.874 97.0373V93.7176L138.151 91.164L140.193 89.3764L142.747 88.6104Z" fill="#201D1D"/>
<path d="M174.157 88.6104L176.455 88.8657L178.498 89.8872L180.285 91.6747L181.307 94.2283V96.5266L180.285 98.8248L178.498 100.868L176.455 101.889L173.901 102.145L171.092 101.123L169.305 99.5909L168.028 97.0373V93.7176L169.305 91.164L171.348 89.3764L174.157 88.6104Z" fill="#211D1E"/>
<path d="M202.246 64.8618H208.375L213.227 65.3725L215.27 66.394L216.291 67.6708L217.057 69.4583L217.313 71.2459V77.1192L217.057 80.1835L216.802 80.9496V87.589L218.334 94.2284L219.355 97.0374L221.143 101.123V101.889H221.654L222.675 103.421L224.463 104.188L224.718 103.421L226.25 102.145L229.059 97.8035L230.847 93.973L232.379 89.1212L233.4 84.5247H233.656V86.5676L232.379 91.6748L231.102 95.2498L229.059 99.0803L227.016 102.145L225.229 104.188L224.718 104.443H222.164L222.675 104.954L222.164 105.209V111.338L221.909 117.211H221.654L221.398 112.104L220.888 110.827L220.632 124.616H220.377L220.122 106.741L219.866 103.166L217.568 97.8035L216.291 92.9516L215.525 88.3551L215.27 82.9925L215.78 75.587V72.0119L215.014 68.9476L213.738 67.6708L211.95 66.9047L210.162 66.6493H201.225L195.096 67.4154L194.33 66.9047L193.053 66.6493L194.075 66.1386L199.182 65.1172L202.246 64.8618Z" fill="#221E1E"/>
<path d="M87.3338 168.028L88.6106 168.283L88.3552 170.837L85.0355 186.159L82.2266 199.437L80.439 208.375L79.673 211.439L78.9069 213.482L78.3961 214.759L77.6301 218.589L77.3747 221.398L76.864 222.931L76.6086 225.74L76.0979 226.506L75.5872 229.825L75.0764 231.102L74.5657 233.4L74.055 234.933L73.5443 237.742L73.0335 238.252L72.7782 241.061L72.5228 241.572H72.0121V243.615L71.7567 245.147L71.246 245.402L70.9907 248.977L70.7353 249.488H70.2246V250.765L69.2031 251.531L69.7138 248.211L74.3104 226.25L77.1193 213.482L78.1408 210.673L79.673 204.545L82.2266 192.032L84.5248 181.051L86.057 174.157L86.8231 169.815L87.3338 168.028Z" fill="#121011"/>
<path d="M237.742 209.141L238.252 209.907L240.295 219.1L241.061 222.42L241.827 226.506L242.594 229.825L243.104 233.656L243.615 235.954L244.636 240.295L245.147 243.104L245.913 246.935L246.935 250.765L247.445 252.297L247.701 254.34L248.212 254.851L248.467 253.319H248.722L253.574 277.578L254.34 281.153V282.43L253.829 282.685L254.085 285.239H254.596V288.303L253.319 288.048L252.808 287.282L251.787 281.153L250.51 275.024L249.488 269.151L248.212 263.022L246.679 255.106L245.147 247.445L243.87 241.317L242.594 234.933L241.317 228.293L240.295 223.186L238.763 215.27L237.742 210.418V209.141Z" fill="#1E1C1D"/>
<path d="M191.777 66.6494H194.33L195.607 66.9048L194.841 67.6709L189.478 69.203L184.371 70.7352L177.476 72.012L171.348 72.7781L168.028 73.0335H155.771L147.088 72.5227L143.513 72.2674V72.012L146.322 71.7566L145.301 71.5013L143.513 71.2459L142.492 70.7352L138.406 70.4798L137.385 70.9906V70.4798L136.619 70.7352L135.852 69.9691L134.32 69.7138V69.4584L138.917 69.7138L143.003 70.2245L153.983 70.9906H169.816L176.2 70.2245L183.35 68.9477L191.011 66.9048L191.777 66.6494Z" fill="#221E1E"/>
<path d="M123.084 153.749H195.096L194.841 155.026L193.564 155.281H174.412L167.773 155.026H137.895L125.638 154.77L125.127 154.26L123.85 154.004V154.515H123.34L123.084 153.749Z" fill="#0C0B0D"/>
<path d="M69.203 320.479H69.4584L69.7138 326.608H70.2245L69.9691 334.524L69.7138 382.787H69.4584L69.203 353.421L68.6923 352.91L68.1816 351.378H67.9262L67.6709 396.832H67.4155L67.1602 325.586L67.6709 326.608L67.9262 326.863L68.6923 324.309L68.9477 323.288L68.6923 322.777L69.203 320.479Z" fill="#232124"/>
<path d="M84.7802 54.3921H85.0355L84.7802 56.6903L83.7587 62.5637L83.5034 65.628V77.8854L83.7587 81.4604L84.5248 86.0569L87.5891 96.2714L89.632 101.379L91.6749 105.72L93.7178 108.273L94.7393 109.039H96.2714L97.0375 108.273L99.0804 103.166L99.5911 101.634H99.8465V103.166L99.3358 104.698L98.8251 105.975L98.5697 107.507H98.059V108.018H97.5482L97.2929 109.039L98.5697 108.784V126.915H98.3143L98.059 123.85L97.8036 114.913L97.0375 114.147V125.638H96.7822V110.316L94.9946 110.572L92.9517 109.55L91.1642 107.507L89.1213 103.932L86.5677 97.8036L84.2694 90.1427L83.248 85.8016L82.4819 80.9497L81.9712 74.5657V67.6709L82.2266 64.3512H82.4819L82.7373 65.628L83.5034 59.4993L84.5248 55.1582L84.7802 54.3921Z" fill="#1F1C1D"/>
<path d="M145.045 76.6084H149.387L151.94 77.1191L152.451 77.6298V79.162L152.196 79.6727L143.258 79.9281L137.129 80.9495L132.022 82.4817L129.979 83.2478H128.192L127.426 81.4603L128.192 80.6942L133.554 78.6513L139.938 77.1191L145.045 76.6084Z" fill="#383534"/>
<path d="M167.773 77.3745H172.624L177.476 77.8852L182.328 78.9067L188.202 80.9496L190.244 82.2264L189.734 83.7586L189.478 84.0139L187.18 83.7586L181.562 81.971L176.455 80.9496L173.391 80.6942L165.474 80.4389L165.219 78.6513L166.24 77.6299L167.773 77.3745Z" fill="#393534"/>
<path d="M101.634 30.3882L103.932 30.6435L110.571 32.1757L116.445 33.1972L122.063 33.9632L125.382 34.2186H132.022L136.874 33.9632L139.172 34.2186L140.193 34.9847V35.7508L134.831 36.2615H125.382L118.488 35.7508L110.827 34.474L103.932 32.6864L101.634 31.665V30.3882Z" fill="#151B23"/>
<path d="M140.194 113.38H143.003L148.365 114.402L152.706 114.913H163.942L163.431 115.423H162.41L161.899 116.445H161.389L160.878 117.466L162.155 117.722L161.389 118.232H153.217L146.067 117.466L144.024 116.955L144.79 116.445L143.769 115.934V115.423L142.747 115.168V114.657L141.981 114.402L141.726 114.657L140.704 115.423H140.194L139.938 116.189L138.917 116.445V114.913L139.683 113.636L140.194 113.38Z" fill="#141112"/>
<path d="M197.905 154.749H220.888L224.208 156.026L226.761 157.558L228.804 159.346L230.592 161.899L232.124 164.963V166.496L230.847 165.474V164.708H230.336L230.592 165.73L230.081 165.985L229.57 163.942L229.059 162.921L226.506 160.367L226.25 159.601L224.974 159.09L222.931 157.813L221.399 157.303V156.792L215.525 156.281L213.482 156.026H204.289L202.502 155.77H200.204L198.416 155.515L197.905 154.749Z" fill="#0F0D0F"/>
<path d="M233.4 84.5249H233.656V86.5678L232.379 91.675L231.102 95.2501L229.059 99.0805L227.016 102.145L225.229 104.188L224.718 104.443H222.165L222.675 104.954L222.165 105.209V111.338L221.909 117.211H221.654L221.399 112.104L220.888 110.827L220.632 124.617H220.377L220.122 106.741L219.866 103.166L217.568 97.8037L216.547 94.2286V91.675L217.313 92.4411L217.823 93.9733L218.845 96.5269V97.0376H219.356L221.143 101.123V101.889H221.654L222.675 103.422L224.463 104.188L224.718 103.422L226.25 102.145L229.059 97.8037L230.847 93.9733L232.379 89.1214L233.4 84.5249Z" fill="#161313"/>
<path d="M230.336 164.708H230.847L231.358 165.474L232.379 165.985V166.496L235.699 165.474L239.018 164.963H244.126L247.701 165.474L251.787 166.751L255.362 168.538L258.171 170.581L260.724 172.88L264.044 176.199L266.342 179.008L268.385 181.817L268.13 182.583L266.598 180.54L264.299 177.731L258.681 172.113L256.894 170.837L255.617 170.326L253.063 168.794L250.254 167.517L246.169 166.24L236.72 166.751L232.379 167.772L232.124 169.049L231.358 168.028L230.336 165.729V164.708Z" fill="#151315"/>
<path d="M142.747 88.6104H144.535L147.088 89.6318L148.876 91.4193L149.897 93.2069L150.153 94.2283V96.5266L149.131 98.8248L147.344 100.868L146.578 101.378L144.79 101.123L145.045 100.102L147.599 98.8248L147.854 98.0587L148.876 97.8034V95.2498L147.344 94.9944L146.067 95.2498L146.833 93.4622L146.578 91.6747L145.301 90.6532L143.513 90.3979L141.981 91.6747L141.47 94.2283L140.96 93.7176L140.704 92.4408L139.683 91.6747L138.661 92.6961L137.895 93.9729H137.385L137.129 94.739V92.9515L138.406 90.9086L140.193 89.3764L142.747 88.6104Z" fill="#141212"/>
<path d="M105.464 76.6084H105.72L105.464 79.4174L105.209 79.6727V82.9924L105.464 84.0139L103.421 94.4837L101.634 100.868L99.8463 105.975L98.5695 108.784L98.0588 109.295L97.2927 109.039L97.5481 108.018H98.0588V107.507H98.5695V105.975L99.3356 103.677L99.591 103.166L100.102 100.102L101.634 93.973L102.911 88.0997L104.698 79.4174L105.464 76.6084Z" fill="#181414"/>
<path d="M0.510742 328.906L0.766104 329.672H1.27683L1.53219 329.161L2.04291 331.204L2.809 336.056L4.34117 340.397L6.38406 344.227L8.93768 347.803L9.4484 349.079L9.95912 349.845L10.9806 350.101V352.144L9.95912 351.888L8.17159 349.845L6.1287 347.292L3.83044 343.717L2.04291 339.886L0.766104 335.545L0.510742 334.268V328.906Z" fill="#151313"/>
<path d="M120.531 66.9048L123.34 67.1601L129.468 68.437L134.065 69.203L135.852 69.7138L136.874 70.4798H137.385L137.64 70.7352L138.406 70.2245L142.492 70.4798L144.79 71.2459H146.067L146.833 72.012H140.96L133.043 70.9906L126.659 69.9691L121.297 68.6923V68.437L122.574 68.1816L121.297 67.6709L120.531 66.9048Z" fill="#141212"/>
<path d="M174.157 88.6104L176.455 88.8657L178.498 89.8872L180.285 91.6747L181.307 94.2283V96.5266H180.796V94.2283L177.987 94.9944L177.221 95.5051L177.732 93.7176L177.476 91.9301L176.199 90.6532L174.412 90.3979L173.135 91.164L172.369 92.1854L172.114 93.7176L171.858 94.739L170.326 92.9515L168.794 94.2283L168.539 96.7819H168.283V92.9515L169.56 90.9086L171.348 89.3764L174.157 88.6104Z" fill="#141212"/>
<path d="M58.7331 172.114L59.2438 172.369L57.967 173.901L56.6902 174.923L56.9456 175.689H56.4348L55.9241 176.71L55.158 177.476H54.6473L54.392 178.242H53.8812L53.3705 179.519L52.6044 180.796H52.0937L51.583 181.818L49.2847 185.393L49.0294 185.903H48.5186L48.2633 186.925L46.9865 188.712L45.7097 191.266L42.6453 196.373L40.3471 201.225L38.3042 204.8L38.0488 204.034L37.5381 204.289L38.0488 202.757L41.3685 196.628L45.4543 189.734L49.0294 183.86L52.0937 179.519L54.392 176.71L58.4777 172.369L58.7331 172.114Z" fill="#1D1B1B"/>
<path d="M151.43 71.2461H153.472L154.749 71.5015L155.26 72.0122L155.515 71.5015H169.56L169.816 72.2675L170.582 72.5229L168.028 73.0336H155.771L147.088 72.5229V72.0122H150.153V71.5015L151.43 71.2461Z" fill="#161212"/>
<path d="M202.246 64.8618H208.375L213.227 65.3725L215.27 66.394L215.78 67.1601L214.759 66.9047V66.394L213.227 66.6493V67.1601L210.162 66.6493H201.225L195.096 67.4154L194.33 66.9047L193.053 66.6493L194.075 66.1386L199.182 65.1172L202.246 64.8618Z" fill="#231F1F"/>
<path d="M174.412 90.1426L176.2 90.3979L177.476 91.4194L177.987 92.6962L177.732 94.2284L176.966 95.5052L175.689 96.2713H174.157L172.624 95.2498L171.858 93.7176L172.114 92.1855L173.646 90.3979L174.412 90.1426Z" fill="#F0F2F1"/>
<path d="M255.362 289.835H255.872V291.368L256.128 292.389L256.894 292.644L256.383 292.9L256.894 295.198L257.405 295.964L257.66 296.475V298.518L258.426 298.773H260.469V299.028H258.681L259.447 302.604L259.192 304.902L258.171 305.413H249.744V305.157H257.66L256.638 301.327L254.851 292.644L254.596 290.602L255.362 290.346V289.835Z" fill="#1F1C1D"/>
<path d="M75.0762 164.963H79.6727L81.971 165.219L82.2263 165.729L76.6084 165.985L71.5011 166.751L67.4154 168.028L65.1171 169.049L62.5635 170.581L60.5206 172.114H60.0099L59.4992 173.135H58.9884V173.646L57.2009 175.178L56.4348 174.922L57.2009 174.667L57.4563 173.901L58.4777 172.88H58.9884L59.4992 171.603L62.3081 169.305L66.3939 167.006L70.2243 165.729L75.0762 164.963Z" fill="#171516"/>
<path d="M136.619 33.9629L139.172 34.2183L140.194 34.9843V35.7504L134.831 36.2611H125.383L121.297 36.0058L121.042 35.4951L122.829 34.9843H130.49L133.043 34.4736L136.108 34.2183L136.619 33.9629Z" fill="#0E0D0F"/>
<path d="M143.513 90.1426L145.301 90.3979L146.833 91.6747L147.088 93.4623L146.322 94.9944L145.301 95.7605H143.258L141.726 94.4837L141.47 93.973L141.726 91.6747L143.513 90.1426Z" fill="#F0F2F1"/>
<path d="M99.5911 101.634H99.8464V103.166L99.3357 104.698L98.825 105.975L98.5696 107.507H98.0589V108.018H97.5482L97.2928 109.039L98.5696 108.784V126.915H98.3143L98.0589 123.85L97.8035 114.913L97.0375 114.147V125.638H96.7821V110.316L96.016 110.061L96.5267 109.55H94.4838L93.207 108.529L93.4624 108.018L94.7392 109.039H96.2714L97.0375 108.273L99.0803 103.166L99.5911 101.634Z" fill="#2A2626"/>
<path d="M256.383 170.582L257.66 171.092L260.724 173.901L265.065 178.242L265.831 179.264V179.775L266.598 180.03L268.13 182.328L268.64 182.073L271.705 186.925L275.024 192.543L276.812 195.607L276.301 195.862L277.833 198.416L277.578 199.182L276.812 197.905L276.046 196.884L275.791 195.352H275.28L273.748 192.798L273.237 191.01H272.726L271.449 188.712V188.201H270.939L270.683 186.669H270.173L268.64 184.116L268.385 183.35H267.874L267.108 181.817L265.831 180.541L264.81 179.008V178.498H264.299L263.022 176.966L258.426 172.369L256.383 170.837V170.582Z" fill="#1C1A1B"/>
<path d="M216.036 67.1602L217.057 68.1816L218.079 72.2674L218.334 75.5871L217.568 82.2265L217.823 88.8659L218.59 92.441L218.845 93.7178L219.611 96.7821L219.356 97.5482L218.334 94.9946L217.313 90.9088L216.547 87.3337V80.9497L216.802 80.1836L217.057 77.1193V71.2459L216.547 68.6923L216.036 67.1602Z" fill="#373536"/>
<path d="M84.0139 87.0781L84.5246 87.8442L85.8014 91.93L87.3336 97.0372L88.3551 99.0801L89.8872 103.421L91.9301 106.741L92.4408 107.507L93.2069 107.762L93.7177 108.784L94.4837 109.295H96.782L96.5266 110.061L95.7605 110.571L94.2284 110.316L92.1855 108.784L89.8872 105.464L87.8443 101.123L85.8014 95.5051L84.0139 89.121V87.0781Z" fill="#151314"/>
<path d="M101.889 18.1306V18.8967L100.102 21.195L98.0589 24.2593L94.9945 29.1112L93.4624 31.6648L90.1427 38.8149L88.0998 43.9221L86.3122 50.0508H86.0569V48.2633L86.5676 46.4758L87.8444 42.1346L89.3766 38.3042L89.6319 37.5381H90.1427L90.398 36.0059L92.4409 32.1755L92.9516 30.8987L94.2285 29.1112L95.5053 26.5575H96.016L96.5267 25.2807L97.8035 22.9825L98.5696 22.4718L99.0803 20.6842L100.868 19.1521L101.889 18.1306Z" fill="#1F1C1D"/>
<path d="M220.122 103.166L221.398 103.677V104.187L222.675 104.698L222.164 105.209V111.338L221.909 117.211H221.654L221.398 112.104L220.888 110.827L220.632 124.616H220.377L220.122 103.166Z" fill="#302D2C"/>
<path d="M134.32 69.4585L138.917 69.7139L143.003 70.2246L153.983 70.9907L169.305 71.246V71.5014L155.515 71.7568L154.239 72.0121L153.472 71.5014H151.43L149.897 72.2675H143.513V72.0121L146.322 71.7568L145.301 71.5014L143.513 71.246L142.492 70.7353L138.406 70.4799L137.385 70.9907V70.4799L136.619 70.7353L135.852 69.9692L134.32 69.7139V69.4585Z" fill="#201D1D"/>
<path d="M125.893 67.6709L129.213 67.9263L131.511 68.437L136.108 68.9477L137.129 69.2031L149.387 70.2245L157.558 70.7352H168.539L173.901 70.4799V70.7352L169.816 71.246H153.983L143.003 70.4799L134.065 69.4584L128.447 68.437L125.893 67.9263V67.6709Z" fill="#373536"/>
<path d="M84.7802 54.3921H85.0355L84.7802 56.6903L83.7587 62.5637L83.5034 65.628L83.248 75.8425L82.7373 75.5871L82.4819 78.3961H82.2266L81.9712 74.5657V67.6709L82.2266 64.3512H82.4819L82.7373 65.628L83.5034 59.4993L84.5248 55.1582L84.7802 54.3921Z" fill="#222020"/>
<path d="M131.511 69.4585H134.32L136.108 69.7139L136.874 70.4799H137.385L137.64 70.7353L138.406 70.2246L142.492 70.4799L144.79 71.246H146.067L146.833 72.0121H140.96L133.043 70.9907L131.511 70.4799V69.4585Z" fill="#121011"/>
<path d="M105.72 75.0762L105.975 75.8423L104.698 80.6941L103.166 88.0996L101.889 93.9729L100.102 100.868L98.5696 105.209L97.0374 108.784L96.2714 109.295H94.7392L92.6963 107.507L92.9517 106.996L94.7392 108.529H96.016L97.2928 106.741L99.0803 101.889L100.868 95.7605L102.655 87.5889L103.932 80.4388L104.954 76.6083L105.72 75.0762Z" fill="#373536"/>
<path d="M139.938 118.488L140.96 119.509V120.02H141.47L142.492 122.063L144.279 124.106L146.067 125.383L147.088 125.893L147.854 126.915V127.425H148.365V127.936H146.833L144.279 126.404L142.236 124.361L140.704 121.807L139.938 120.02V118.488Z" fill="#141111"/>
<path d="M97.2927 154.749H120.02L119.254 155.515H101.889L97.0374 155.26L97.2927 154.749Z" fill="#0C0B0D"/>
<path d="M231.358 42.9009L231.868 43.1562L232.634 47.242L233.145 52.3493L233.656 56.1797V58.4779L234.422 66.9049V80.6944L234.167 82.7373H233.911V70.2246L233.145 58.7333L232.634 52.86L231.613 45.7099L231.358 42.9009Z" fill="#1F1C1D"/>
<path d="M232.634 86.8228L232.89 87.8442L231.613 92.4407L230.336 95.7604L228.804 98.5694L226.25 102.4L224.718 103.677L224.463 104.187L223.186 103.932L221.909 102.655L221.654 101.889H221.143L219.611 98.0587L219.866 97.5479L221.909 101.378L222.675 102.655V103.166H224.973L225.484 101.889H225.995L226.761 100.357H227.272V99.3355H227.782L228.293 97.8033L230.336 93.9729L232.124 88.8656L232.634 86.8228Z" fill="#373536"/>
<path d="M44.6882 191.266H44.9436L44.6882 193.053L42.6453 196.373L40.3471 201.225L38.3042 204.8L38.0488 204.034L37.5381 204.289L38.0488 202.757L41.3685 196.628L44.4328 191.521L44.6882 191.266Z" fill="#1E1B1C"/>
<path d="M233.4 84.5249H233.656V86.5678L232.379 91.675L231.102 95.2501L229.059 99.0805L227.016 102.145L225.229 104.188L224.718 104.443H222.675L221.909 104.188L221.143 101.889H221.654L222.675 103.422L224.463 104.188L224.718 103.422L226.25 102.145L229.059 97.8037L230.847 93.9733L232.379 89.1214L233.4 84.5249Z" fill="#1F1C1D"/>
<path d="M64.3512 276.046L64.8619 276.301V278.089L64.3512 278.344L64.0959 281.664L63.5851 283.196L63.0744 286.26L62.053 287.793H61.7976V285.494L63.5851 277.067L64.3512 276.046Z" fill="#151212"/>
<path d="M250.51 331.204H250.765V347.547H250.51L249.999 343.206L249.744 338.354V332.992L250.51 331.204Z" fill="#1F1C1D"/>
<path d="M253.063 273.492L253.83 273.748L255.362 281.153V282.43L254.34 282.685L253.063 277.833L252.808 277.067L252.553 274.003L253.063 273.492Z" fill="#191C21"/>
<path d="M11.7466 323.288L12.2573 324.309L13.2787 325.075L13.0234 329.161L12.5126 328.65V330.948L12.0019 333.247H11.7466L11.2358 329.672V325.841L11.7466 323.288Z" fill="#242527"/>
<path d="M207.864 12.7681L209.141 13.2788L212.716 15.8324L214.504 17.8753L215.27 18.386V18.8967L216.291 19.4075L220.377 23.4933L222.675 26.3022L222.931 27.0683H222.42L221.654 26.0469V25.5361H221.143L220.122 24.2593L219.356 23.7486V23.2379L218.334 22.7272V22.2164H217.823L216.547 20.6843L215.27 19.6628L213.993 18.386L211.439 15.577L208.886 13.7895L207.864 12.7681Z" fill="#373536"/>
<path d="M202.246 64.3511H209.907L212.461 64.8618L214.759 65.6279L215.015 66.1386L211.439 65.3725L208.375 65.1172H202.246L197.395 65.6279L193.053 66.6493H191.777L192.798 66.1386L197.139 65.1172L202.246 64.3511Z" fill="#373536"/>
<path d="M191.777 66.6494H194.33L195.607 66.9048L194.841 67.6709L189.478 69.203L187.18 69.7138L187.691 68.6923L189.223 67.4155L191.777 66.6494Z" fill="#151313"/>
<path d="M256.383 170.582L257.66 171.092L260.724 173.901L265.065 178.242L265.831 179.264V179.775L266.598 180.03L268.13 182.328L268.64 182.073L269.151 183.35V183.86L270.428 185.648V186.414H270.939L271.194 187.691L270.683 187.435V186.669H270.173L268.64 184.116L268.385 183.35H267.874L267.108 181.817L265.831 180.541L264.81 179.008V178.498H264.299L263.022 176.966L258.426 172.369L256.383 170.837V170.582Z" fill="#1F1C1D"/>
<path d="M105.464 76.6084H105.72L105.464 79.4174L105.209 79.6727V81.971L104.954 83.7585L104.443 84.2692L103.932 87.8443L103.677 88.355H103.166V91.164L102.655 91.9301L102.145 94.4837L101.634 96.0159H101.379L101.634 93.973L102.911 88.0997L104.698 79.4174L105.464 76.6084Z" fill="#1F1C1D"/>
<path d="M82.4817 74.8208L83.2478 75.8422L83.7585 81.4602L84.2692 84.5245L84.0139 86.3121H83.5031L82.9924 84.0138L82.4817 80.9495V74.8208Z" fill="#1F1C1E"/>
<path d="M9.95919 344.994L11.4914 346.015H11.7467L11.236 352.655L10.4699 352.144H10.9806V350.101L9.70383 349.846L8.93774 348.824L9.70383 346.526L9.95919 344.994Z" fill="#282423"/>
<path d="M169.815 112.87H171.092L171.348 113.636L169.56 114.913H167.773L166.24 115.423L164.708 115.679V114.913L164.198 114.402L169.049 113.125L169.815 112.87Z" fill="#191D23"/>
<path d="M71.5014 242.083L72.0121 242.594L71.7567 245.147L71.246 245.403L70.9907 248.978L70.7353 249.488H70.2246V250.765L69.2031 251.531L69.7138 248.212L70.9907 242.338L71.5014 242.083Z" fill="#1A1615"/>
<path d="M131.511 69.4585H134.32L136.108 69.7139L136.874 70.4799H137.385L137.64 71.5014L134.576 71.246L131.511 70.4799V69.4585Z" fill="#141212"/>
<path d="M213.738 66.394H214.759L215.015 66.9048L216.036 67.1601L216.547 68.1816V72.012H215.781L215.015 68.9477L213.738 67.6709L213.227 66.6494L213.738 66.394Z" fill="#171313"/>
<path d="M155.004 126.659H162.665L162.41 127.425H161.644V127.936L161.133 128.191H157.558L156.026 127.425V126.915L155.004 126.659Z" fill="#0C0B0D"/>
<path d="M0.255362 325.586L1.53217 326.352L2.04289 325.841L1.78753 330.693L1.27681 329.672H0.766085L0.510723 332.736H0.255362L0 328.65L0.255362 325.586Z" fill="#242529"/>
<path d="M172.624 70.7354H173.901L173.39 71.2461L173.901 72.5229L171.348 72.7782H168.794L169.815 72.2675L169.305 71.2461L169.815 70.9907L172.624 70.7354Z" fill="#252120"/>
<path d="M205.055 155.771H214.759L215.525 156.026L220.632 156.537L221.399 157.047L216.547 156.792H214.759L214.504 156.537L204.545 156.281L205.055 155.771Z" fill="#1F1C1D"/>
<path d="M122.829 146.067L123.084 146.833L122.829 153.217L122.318 152.451V149.897H121.297V147.599L122.574 146.322L122.829 146.067Z" fill="#141920"/>
<path d="M156.792 116.445L158.069 116.956L157.813 117.722H153.472L152.195 117.466V117.977H150.408L151.429 117.211H152.451L152.706 116.7L156.792 116.445Z" fill="#161C24"/>
<path d="M48.5187 184.626L49.2847 184.882L49.0294 185.903H48.5187L48.2633 186.925L46.9865 188.712L45.7097 191.266L44.9436 192.032L44.6882 191.011L47.7526 185.903L48.5187 184.626Z" fill="#1E1C1C"/>
<path d="M140.194 113.38H143.003L141.981 113.891L141.726 114.657L140.704 115.423H140.194L139.938 116.189L138.917 116.445V114.913L139.683 113.636L140.194 113.38Z" fill="#171414"/>
<path d="M82.2264 165.474L84.2692 165.729L87.0782 166.496L87.3336 165.729V166.751L86.0568 167.006L85.5461 167.262L81.971 166.24L76.6084 165.985V165.729L82.2264 165.474Z" fill="#252121"/>
<path d="M226.25 31.9204L227.272 32.9419L229.315 36.5169L231.102 41.3688V42.901L230.592 42.1349L229.315 38.3045L228.549 37.0276L227.783 35.2401L226.25 32.4311V31.9204Z" fill="#373536"/>
<path d="M251.787 265.065L252.297 266.087L253.063 269.917V271.194H252.553L252.042 269.407L251.531 268.64L251.021 265.832L251.787 265.065Z" fill="#1F1F21"/>
<path d="M84.78 54.3921H85.0353L84.78 56.6903L83.7585 62.5637L83.5032 65.628H82.9924L83.2478 61.0315L84.5246 55.1582L84.78 54.3921Z" fill="#1F1C1D"/>
<path d="M58.7332 172.114L59.2439 172.369L57.9671 173.901L56.6903 174.923L56.9457 175.689H56.435L55.9242 176.71L55.1582 177.476L53.8813 177.987L54.1367 176.966L55.9242 175.178L57.7118 173.135L58.7332 172.114Z" fill="#1B191A"/>
<path d="M142.492 119.254H143.258L144.535 121.808L145.301 122.574V123.084L144.279 122.574L143.768 122.063L143.513 122.574L142.236 121.297V119.509L142.492 119.254Z" fill="#181516"/>
<path d="M180.541 109.295L181.562 109.806L182.583 112.359V113.636H181.051L181.307 111.849L180.541 110.827V109.295Z" fill="#1D1917"/>
<path d="M248.722 249.744H248.978L249.488 252.297V254.851L248.978 255.362L248.211 253.574V251.276L248.722 249.744Z" fill="#171515"/>
<path d="M95.2498 155.26H96.5266L96.0159 155.77L93.973 156.792L90.9087 159.856L90.3979 159.09L91.4194 158.324L92.4408 156.792L95.2498 155.26Z" fill="#111012"/>
<path d="M124.106 54.1367L124.872 54.3921L124.616 54.9028L126.404 55.4135V55.6689L121.807 55.4135L118.232 54.9028V54.6474H123.34L124.106 54.1367Z" fill="#1F1C1D"/>
<path d="M30.6433 315.627H33.1969L35.7505 316.648V317.159L34.9845 317.414L31.4094 316.648L31.154 316.138H30.6433V315.627Z" fill="#141C25"/>
<path d="M230.336 164.708H230.847L231.358 165.474L232.379 165.985V166.496L232.89 166.751H232.379V167.262L233.145 167.517L232.379 167.772L232.124 169.049L231.358 168.028L230.336 165.729V164.708Z" fill="#1F1C1D"/>
<path d="M128.447 68.437L132.788 68.9477L134.065 69.2031V69.4585L131.766 69.7138V70.2245L132.533 70.7353L129.468 70.4799V70.2245L130.745 69.9692L129.979 69.2031L128.447 68.6924V68.437Z" fill="#25201F"/>
<path d="M82.4817 74.8208L82.9924 75.5869L83.2478 82.2263L82.7371 81.7156L82.4817 80.9495V74.8208Z" fill="#111012"/>
<path d="M39.3256 200.459H39.8363L39.581 202.757L38.3042 204.8L38.0488 204.034L37.5381 204.289L38.0488 202.757L39.3256 200.459Z" fill="#1C191A"/>
<path d="M68.9477 253.319L69.2031 254.34V256.639H68.437L68.1816 258.171H67.9263V255.872L68.437 253.574L68.9477 253.319Z" fill="#191514"/>
<path d="M84.0139 87.0781L84.5246 87.8442L85.8014 91.93L85.0354 92.9514L84.0139 89.121V87.0781Z" fill="#151416"/>
<path d="M166.496 113.891H168.028L167.517 115.168L165.474 115.423L164.708 115.679V114.913L164.198 114.402L166.496 113.891Z" fill="#1C1F24"/>
<path d="M57.7117 305.157L58.4778 305.413L58.7331 305.923L59.4992 306.179V306.689H64.6064V306.945H57.7117V305.157Z" fill="#201D1E"/>
<path d="M71.5012 242.083L72.0119 242.594L71.7565 245.147L70.4797 245.913L70.7351 243.36L70.9905 242.338L71.5012 242.083Z" fill="#181414"/>
<path d="M41.8793 197.139V197.905L39.8364 201.991L39.5811 201.225L39.8364 199.437L40.8579 198.161L41.8793 197.139Z" fill="#201D1D"/>
<path d="M268.64 183.35L269.662 183.605L272.726 188.712L272.471 189.478L270.939 187.18V186.414H270.428L269.151 184.116L268.64 183.35Z" fill="#181618"/>
<path d="M60.2652 170.837L60.776 171.092L60.2652 171.603L60.5206 172.114H60.0099L59.4992 173.135H58.9884V173.646L57.2009 175.178L56.4348 174.923L57.2009 174.667L57.4563 173.901L58.4777 172.88H58.9884L59.4992 171.603L60.2652 170.837Z" fill="#181617"/>
<path d="M254.085 287.792L255.617 288.303V290.601L255.106 290.857L254.34 290.346L254.085 287.792Z" fill="#171516"/>
<path d="M53.6259 177.476H54.392V178.242H53.8813L53.3705 179.519L52.6045 180.796L51.583 181.051V180.285L53.6259 177.476Z" fill="#201D1D"/>
<path d="M250.51 259.703L251.02 259.958L251.276 260.979V263.533L250.765 263.788L250.254 262.256L250.51 259.703Z" fill="#181514"/>
<path d="M277.833 199.182L278.855 200.204L280.642 203.523V205.055L280.132 204.545L278.855 201.48L278.089 200.204L277.833 199.182Z" fill="#1F1C1D"/>
<path d="M84.0139 84.7803H84.2693L85.2907 88.6107L85.0353 89.6321L84.2693 87.8446L83.7585 88.1L83.5032 86.3124H84.0139V84.7803Z" fill="#201D1F"/>
<path d="M180.285 109.295H180.541L181.051 111.338L181.562 111.849L181.051 113.381L180.285 112.359L179.775 109.55L180.285 109.295Z" fill="#141C25"/>
<path d="M120.531 66.9048L123.34 67.1601L124.106 67.6709L123.34 67.9262V68.9477L121.297 68.6923V68.437L122.574 68.1816L121.297 67.6709L120.531 66.9048Z" fill="#262120"/>
<path d="M64.351 276.046L64.8618 276.301V278.089L63.8403 278.6L63.3296 279.366L63.585 277.067L64.351 276.046Z" fill="#191615"/>
<path d="M42.3901 194.841H42.9008V196.118L42.3901 197.139L40.8579 198.671L41.1133 197.139L42.3901 194.841Z" fill="#1C191A"/>
<path d="M253.063 271.194H253.319L253.574 273.492L252.808 273.747L252.297 273.492L252.042 271.705H252.808L253.063 271.194Z" fill="#1D1F23"/>
<path d="M249.488 255.362L250.254 256.128V258.682H249.488L249.233 256.894L249.488 256.128V255.362Z" fill="#131011"/>
<path d="M180.541 109.295L181.562 109.806L182.073 111.593L180.796 111.338L180.541 110.827V109.295Z" fill="#1A1615"/>
<path d="M254.595 283.196H254.851L255.106 285.239H255.617V288.303L255.106 288.048L254.595 285.494V283.196Z" fill="#141C25"/>
<path d="M250.254 257.149H250.51L250.765 259.703L250.51 260.979H249.999L249.744 260.469V258.936L250.254 257.149Z" fill="#202226"/>
<path d="M48.5188 184.626L49.2848 184.882L49.0295 185.903H48.5188L48.2634 186.925L47.4973 187.691L47.2419 186.669L48.5188 184.626Z" fill="#211E1E"/>
<path d="M180.03 94.2285H180.796L181.051 97.2929L180.541 98.0589V95.7607H180.03L179.775 94.4839L180.03 94.2285Z" fill="#1B1F25"/>
<path d="M307.2 346.781L307.966 347.547L308.221 349.08H307.711V351.633H307.455L307.2 346.781Z" fill="#2C2B2E"/>
<path d="M253.063 273.492L253.83 273.748L254.085 275.024V277.323L253.574 276.557L253.063 274.003V273.492Z" fill="#1A1615"/>
<path d="M276.046 194.585L276.812 195.607L276.301 195.862L277.833 198.416L277.578 199.182L276.812 197.905L276.046 196.884L275.791 195.607L276.046 194.585Z" fill="#1F1C1D"/>
<path d="M178.753 115.679L179.008 116.7L178.753 117.977H178.242L177.987 118.488L177.221 118.232L177.476 117.211L178.242 116.445H178.753V115.679Z" fill="#3B3634"/>
<path d="M227.272 29.6221L228.293 30.3882L229.059 31.1542L229.315 32.9418L228.549 32.6864L227.272 30.3882V29.6221Z" fill="#E0E2E2"/>
<path d="M308.477 344.738H308.732L308.988 348.569L309.498 348.824L308.732 349.59L308.477 348.824V344.738Z" fill="#39302B"/>
<path d="M141.47 116.189L142.492 116.445V118.743L141.981 117.722H141.47L141.215 116.7L141.47 116.189Z" fill="#111012"/>
<path d="M128.702 80.439L129.724 80.6943L128.447 81.9711L127.936 82.2265V81.7158L127.426 81.4604L128.192 80.6943L128.702 80.439Z" fill="#1F2226"/>
<path d="M288.559 308.732H289.835L289.58 309.243L290.601 310.009L286.771 309.754V309.499L288.559 309.243V308.732Z" fill="#2C2A2B"/>
<path d="M58.7331 172.114L59.2438 172.369L57.967 173.901L56.4348 175.178V174.412L58.7331 172.114Z" fill="#1F1D1D"/>
<path d="M98.5695 107.252H98.8249V108.529L98.0588 109.295L97.2927 109.039L97.5481 108.018H98.0588V107.507L98.5695 107.252Z" fill="#120F10"/>
<path d="M83.2478 83.248L83.7585 83.7588L84.0139 84.5249V86.3124H83.5032L83.2478 85.8017V83.248Z" fill="#121113"/>
<path d="M67.4155 259.192H67.9262V261.49H67.4155L67.1602 262.512V260.213L67.4155 259.192Z" fill="#1E1917"/>
<path d="M228.549 162.41L229.825 163.432L230.081 166.241L229.57 165.474L228.549 162.921V162.41Z" fill="#1E1B1C"/>
<path d="M173.391 70.9907H174.667V71.5014L175.433 72.0122L172.88 72.2675L173.646 72.0122V71.5014L172.88 71.2461L173.391 70.9907Z" fill="#0D0C0E"/>
</svg>
